SplineFontDB: 3.2
FontName: Do0rness-Regular
FullName: Do0rness Regular
FamilyName: Do0rness
Weight: Book
Version: 001.001
ItalicAngle: 0
UnderlinePosition: -100
UnderlineWidth: 50
Ascent: 800
Descent: 200
InvalidEm: 0
sfntRevision: 0x00010000
LayerCount: 2
Layer: 0 1 "Back" 1
Layer: 1 1 "Fore" 0
XUID: [1021 298 1763374162 3939]
StyleMap: 0x0040
FSType: 0
OS2Version: 4
OS2_WeightWidthSlopeOnly: 0
OS2_UseTypoMetrics: 0
CreationTime: 1668445554
ModificationTime: 1687158902
PfmFamily: 17
TTFWeight: 400
TTFWidth: 5
LineGap: 90
VLineGap: 0
Panose: 2 0 5 3 0 0 0 0 0 0
OS2TypoAscent: 800
OS2TypoAOffset: 0
OS2TypoDescent: -200
OS2TypoDOffset: 0
OS2TypoLinegap: 90
OS2WinAscent: 692
OS2WinAOffset: 0
OS2WinDescent: 56
OS2WinDOffset: 0
HheadAscent: 692
HheadAOffset: 0
HheadDescent: -56
HheadDOffset: 0
OS2SubXSize: 650
OS2SubYSize: 700
OS2SubXOff: 0
OS2SubYOff: 140
OS2SupXSize: 650
OS2SupYSize: 700
OS2SupXOff: 0
OS2SupYOff: 480
OS2StrikeYSize: 49
OS2StrikeYPos: 258
OS2CapHeight: 633
OS2XHeight: 633
OS2Vendor: 'CLGR'
OS2CodePages: 00000001.00000000
OS2UnicodeRanges: 00000003.00000000.00000000.00000000
DEI: 91125
TtTable: prep
PUSHW_1
 511
SCANCTRL
PUSHB_1
 4
SCANTYPE
EndTTInstrs
ShortTable: cvt  2
  33
  633
EndShort
ShortTable: maxp 16
  1
  0
  80
  161
  5
  0
  0
  2
  0
  1
  1
  0
  64
  0
  0
  0
EndShort
LangName: 1033 "" "" "" "Calligraphr : Do0rness Regular : 14-11-2022" "" "Version 001.001" "" "" "" "" "Created with Calligraphr.com" "" "" "" "" "" "Do0rness" "Regular"
GaspTable: 1 65535 15 1
Encoding: UnicodeBmp
UnicodeInterp: none
NameList: AGL For New Fonts
DisplaySize: -48
AntiAlias: 1
FitToEm: 0
WinInfo: 135 27 9
BeginChars: 65538 80

StartChar: .notdef
Encoding: 65536 -1 0
Width: 364
GlyphClass: 1
Flags: W
LayerCount: 2
Fore
SplineSet
33 0 m 1,0,-1
 33 666 l 1,1,-1
 298 666 l 1,2,-1
 298 0 l 1,3,-1
 33 0 l 1,0,-1
66 33 m 1,4,-1
 265 33 l 1,5,-1
 265 633 l 1,6,-1
 66 633 l 1,7,-1
 66 33 l 1,4,-1
EndSplineSet
Validated: 1
EndChar

StartChar: exclam
Encoding: 33 33 5
Width: 205
GlyphClass: 1
Flags: W
LayerCount: 2
Fore
SplineSet
83 612 m 0,0,1
 93 620 93 620 110 620 c 0,2,3
 121 620 121 620 126 615.5 c 128,-1,4
 131 611 131 611 139 593 c 0,5,6
 149 574 149 574 150.5 551 c 128,-1,7
 152 528 152 528 154 417 c 2,8,-1
 155 266 l 1,9,-1
 140 265 l 1,10,-1
 132 265 l 2,11,12
 93 265 93 265 77 288 c 0,13,14
 66 305 66 305 66 431 c 0,15,16
 66 488 66 488 69 539 c 0,17,18
 74 605 74 605 83 612 c 0,0,1
80 208 m 0,19,20
 92 211 92 211 97 211 c 128,-1,21
 102 211 102 211 118 205 c 0,22,23
 134 198 134 198 140 191 c 128,-1,24
 146 184 146 184 146 172 c 0,25,26
 146 162 146 162 145 156 c 0,27,28
 139 109 139 109 101 109 c 0,29,30
 90 109 90 109 73 126 c 128,-1,31
 56 143 56 143 52 159 c 0,32,33
 52 160 52 160 51.5 161.5 c 128,-1,34
 51 163 51 163 51 164 c 0,35,36
 51 176 51 176 60.5 190.5 c 128,-1,37
 70 205 70 205 80 208 c 0,19,20
EndSplineSet
Validated: 1
EndChar

StartChar: quotedbl
Encoding: 34 34 6
Width: 1000
GlyphClass: 2
Flags: W
LayerCount: 2
Fore
SplineSet
420 712 m 1,0,-1
 525 607 l 1,1,-1
 594 643 l 1,2,-1
 519 775 l 1,3,-1
 420 712 l 1,0,-1
256 687 m 1,4,-1
 361 582 l 1,5,-1
 430 618 l 1,6,-1
 355 750 l 1,7,-1
 256 687 l 1,4,-1
EndSplineSet
Validated: 9
EndChar

StartChar: numbersign
Encoding: 35 35 7
Width: 544
GlyphClass: 1
Flags: W
LayerCount: 2
Fore
SplineSet
312 398 m 0,0,1
 296 398 296 398 277 401 c 0,2,3
 263 403 263 403 262 403 c 0,4,5
 253 403 253 403 250.5 396.5 c 128,-1,6
 248 390 248 390 245 366 c 2,7,-1
 242 341 l 1,8,-1
 324 341 l 1,9,-1
 329 365 l 2,10,11
 332 377 332 377 332 384 c 0,12,13
 332 398 332 398 312 398 c 0,0,1
232 603 m 0,14,15
 242 609 242 609 262 609 c 0,16,17
 274 609 274 609 276.5 606 c 128,-1,18
 279 603 279 603 279 588 c 0,19,20
 279 570 279 570 271 522 c 0,21,22
 269 512 269 512 267 500 c 128,-1,23
 265 488 265 488 264 482 c 128,-1,24
 263 476 263 476 263 475 c 0,25,26
 263 468 263 468 325 462 c 2,27,-1
 349 460 l 1,28,-1
 355 490 l 2,29,30
 368 555 368 555 375 572.5 c 128,-1,31
 382 590 382 590 397 598 c 0,32,33
 413 606 413 606 416 606 c 0,34,35
 420 606 420 606 427 601 c 0,36,37
 438 593 438 593 438 579 c 128,-1,38
 438 565 438 565 431 547 c 0,39,40
 423 528 423 528 421 494 c 2,41,-1
 420 463 l 1,42,-1
 448 462 l 2,43,44
 477 460 477 460 481 456 c 0,45,46
 484 453 484 453 488 417 c 2,47,-1
 491 384 l 1,48,-1
 476 380 l 2,49,50
 473 379 473 379 464 379 c 0,51,52
 450 379 450 379 436 382 c 0,53,54
 416 387 416 387 413 387 c 0,55,56
 411 387 411 387 410 386.5 c 128,-1,57
 409 386 409 386 408 384 c 128,-1,58
 407 382 407 382 406.5 379.5 c 128,-1,59
 406 377 406 377 405 372 c 128,-1,60
 404 367 404 367 403 363 c 0,61,62
 398 343 398 343 403 343 c 0,63,64
 404 343 404 343 408 344 c 0,65,66
 414 346 414 346 424 346 c 0,67,68
 430 346 430 346 446 344 c 0,69,70
 466 341 466 341 471 337.5 c 128,-1,71
 476 334 476 334 480 321 c 0,72,73
 485 304 485 304 485 286 c 0,74,75
 485 272 485 272 477.5 267 c 128,-1,76
 470 262 470 262 448 262 c 0,77,78
 433 262 433 262 424 263 c 2,79,-1
 387 265 l 1,80,-1
 386 235 l 2,81,82
 386 208 386 208 380 166 c 2,83,-1
 374 127 l 1,84,-1
 332 126 l 2,85,86
 326 126 326 126 318 125.5 c 128,-1,87
 310 125 310 125 308 125 c 0,88,89
 295 125 295 125 291.5 127.5 c 128,-1,90
 288 130 288 130 286 137 c 0,91,92
 285 139 285 139 285 144 c 0,93,94
 285 161 285 161 291 176 c 0,95,96
 298 202 298 202 302 233 c 2,97,-1
 306 264 l 1,98,-1
 228 264 l 1,99,-1
 224 240 l 2,100,101
 223 234 223 234 223 221 c 128,-1,102
 223 208 223 208 226 183 c 128,-1,103
 229 158 229 158 229 148 c 2,104,-1
 230 127 l 1,105,-1
 187 126 l 2,106,107
 182 126 182 126 174 125.5 c 128,-1,108
 166 125 166 125 163 125 c 0,109,110
 150 125 150 125 146.5 127.5 c 128,-1,111
 143 130 143 130 141 137 c 0,112,113
 137 150 137 150 143 167 c 0,114,115
 150 189 150 189 155 215 c 0,116,117
 156 222 156 222 158 231.5 c 128,-1,118
 160 241 160 241 161.5 247.5 c 128,-1,119
 163 254 163 254 163 257 c 0,120,121
 163 262 163 262 120 266 c 0,122,123
 76 270 76 270 66.5 273.5 c 128,-1,124
 57 277 57 277 54 290 c 0,125,126
 53 294 53 294 53 299 c 0,127,128
 53 309 53 309 64 320 c 0,129,130
 73 330 73 330 82.5 333 c 128,-1,131
 92 336 92 336 122 338 c 0,132,133
 167 342 167 342 168 343 c 128,-1,134
 169 344 169 344 173 378 c 0,135,136
 175 400 175 400 175 402 c 0,137,138
 175 411 175 411 168.5 414 c 128,-1,139
 162 417 162 417 133 421 c 0,140,141
 122 423 122 423 115 424 c 0,142,143
 91 428 91 428 82.5 431.5 c 128,-1,144
 74 435 74 435 67 444 c 0,145,146
 57 459 57 459 57 463 c 0,147,148
 57 468 57 468 67 478 c 0,149,150
 75 484 75 484 81 484 c 128,-1,151
 87 484 87 484 99 481 c 0,152,153
 124 475 124 475 161 473 c 2,154,-1
 201 471 l 1,155,-1
 206 499 l 2,156,157
 212 520 212 520 216 562 c 0,158,159
 218 584 218 584 221 591 c 128,-1,160
 224 598 224 598 232 603 c 0,14,15
EndSplineSet
Validated: 1
EndChar

StartChar: dollar
Encoding: 36 36 8
Width: 484
GlyphClass: 1
Flags: W
LayerCount: 2
Fore
SplineSet
237 666 m 0,0,1
 258 681 258 681 269 681 c 0,2,3
 288 681 288 681 291 614 c 2,4,-1
 293 563 l 1,5,6
 306 564 306 564 332 564 c 128,-1,7
 358 564 358 564 371 565 c 1,8,-1
 382 527 l 2,9,10
 392 497 392 497 392 487 c 0,11,12
 392 479 392 479 313 465 c 128,-1,13
 234 451 234 451 234 447 c 0,14,15
 234 444 234 444 322 395 c 0,16,17
 407 347 407 347 411 335 c 0,18,19
 414 322 414 322 421 192 c 128,-1,20
 428 62 428 62 429 55 c 0,21,22
 430 47 430 47 430 37 c 0,23,24
 430 23 430 23 425 21 c 0,25,26
 423 20 423 20 398 20 c 0,27,28
 375 20 375 20 362 21 c 2,29,-1
 307 24 l 1,30,-1
 307 -6 l 2,31,32
 307 -56 307 -56 281 -56 c 0,33,34
 272 -56 272 -56 238 -27 c 2,35,-1
 204 2 l 1,36,-1
 204 112 l 1,37,-1
 131 178 l 2,38,39
 56 247 56 247 56 253 c 0,40,41
 56 261 56 261 80 288 c 128,-1,42
 104 315 104 315 112 315 c 0,43,44
 118 315 118 315 180 281.5 c 128,-1,45
 242 248 242 248 285 222 c 0,46,47
 296 216 296 216 300 216 c 0,48,49
 305 216 305 216 305 226 c 0,50,51
 305 234 305 234 304 240 c 0,52,53
 302 254 302 254 286.5 268 c 128,-1,54
 271 282 271 282 201 335 c 0,55,56
 101 410 101 410 101 421 c 0,57,58
 101 437 101 437 107 479 c 128,-1,59
 113 521 113 521 117 528 c 0,60,61
 121 537 121 537 158 541 c 2,62,-1
 195 545 l 1,63,-1
 194 584 l 1,64,-1
 194 592 l 2,65,66
 194 620 194 620 202 633.5 c 128,-1,67
 210 647 210 647 237 666 c 0,0,1
EndSplineSet
Validated: 1
EndChar

StartChar: percent
Encoding: 37 37 9
Width: 522
GlyphClass: 1
Flags: W
LayerCount: 2
Fore
SplineSet
324 600 m 0,0,1
 333 613 333 613 345 613 c 0,2,3
 354 613 354 613 361 612 c 0,4,5
 389 608 389 608 392 606 c 0,6,7
 396 604 396 604 396 596 c 0,8,9
 396 563 396 563 334 427 c 0,10,11
 318 391 318 391 318 380 c 128,-1,12
 318 369 318 369 309 356 c 0,13,14
 302 347 302 347 293 326 c 0,15,16
 288 310 288 310 263 252 c 0,17,18
 242 205 242 205 242 192 c 0,19,20
 242 185 242 185 245 173 c 0,21,22
 249 157 249 157 249 154 c 0,23,24
 249 142 249 142 237 138 c 128,-1,25
 225 134 225 134 190 132 c 0,26,27
 179 131 179 131 163 131 c 0,28,29
 139 131 139 131 139 143 c 0,30,31
 139 152 139 152 152 185 c 0,32,33
 168 224 168 224 168 230 c 0,34,35
 168 237 168 237 197 306 c 0,36,37
 203 321 203 321 219 362.5 c 128,-1,38
 235 404 235 404 246.5 433.5 c 128,-1,39
 258 463 258 463 273.5 499 c 128,-1,40
 289 535 289 535 301.5 561 c 128,-1,41
 314 587 314 587 324 600 c 0,0,1
86 516 m 0,42,43
 86 526 86 526 120 526 c 0,44,45
 157 526 157 526 167 520 c 0,46,47
 176 514 176 514 176 494 c 0,48,49
 176 478 176 478 170 463 c 0,50,51
 147 411 147 411 113 411 c 0,52,53
 100 411 100 411 87 418 c 0,54,55
 55 434 55 434 55 465 c 0,56,57
 55 476 55 476 64 493.5 c 128,-1,58
 73 511 73 511 79 511 c 0,59,60
 86 511 86 511 86 516 c 0,42,43
406 322 m 0,61,62
 421 329 421 329 433 329 c 0,63,64
 460 329 460 329 466 279 c 0,65,66
 466 276 466 276 466.5 271.5 c 128,-1,67
 467 267 467 267 467 265 c 0,68,69
 467 251 467 251 455 236 c 0,70,71
 446 224 446 224 439.5 221 c 128,-1,72
 433 218 433 218 416 218 c 0,73,74
 389 218 389 218 374 230.5 c 128,-1,75
 359 243 359 243 359 266 c 0,76,77
 359 302 359 302 406 322 c 0,61,62
EndSplineSet
Validated: 1
EndChar

StartChar: ampersand
Encoding: 38 38 10
Width: 578
GlyphClass: 1
Flags: W
LayerCount: 2
Fore
SplineSet
310 241 m 0,0,1
 290 257 290 257 247 303 c 2,2,-1
 201 353 l 1,3,-1
 187 341 l 2,4,5
 176 333 176 333 159 300 c 128,-1,6
 142 267 142 267 142 255 c 0,7,8
 142 233 142 233 151.5 221 c 128,-1,9
 161 209 161 209 188 199 c 2,10,-1
 223 186 l 1,11,-1
 266 199 l 2,12,13
 310 214 310 214 318 222 c 0,14,15
 325 227 325 227 323.5 230 c 128,-1,16
 322 233 322 233 310 241 c 0,0,1
265 555 m 0,17,18
 249 567 249 567 244 567 c 0,19,20
 243 567 243 567 237 565 c 0,21,22
 236 565 236 565 229 563.5 c 128,-1,23
 222 562 222 562 218 561 c 0,24,25
 205 558 205 558 193 537 c 0,26,27
 185 519 185 519 185 506 c 0,28,29
 185 485 185 485 202 469 c 2,30,-1
 216 455 l 1,31,-1
 254 479 l 2,32,33
 277 494 277 494 284 501 c 128,-1,34
 291 508 291 508 291 516 c 0,35,36
 291 529 291 529 286.5 536 c 128,-1,37
 282 543 282 543 265 555 c 0,17,18
193 640 m 0,38,39
 233 650 233 650 251 650 c 0,40,41
 276 650 276 650 298 635 c 0,42,43
 320 619 320 619 345 593 c 2,44,-1
 368 567 l 1,45,-1
 368 511 l 1,46,-1
 368 492 l 2,47,48
 368 460 368 460 360.5 450.5 c 128,-1,49
 353 441 353 441 308 413 c 2,50,-1
 275 393 l 1,51,-1
 302 361 l 2,52,53
 323 337 323 337 351.5 314.5 c 128,-1,54
 380 292 380 292 388 292 c 2,55,-1
 389 292 l 2,56,57
 392 294 392 294 404 325 c 0,58,59
 430 393 430 393 463 393 c 0,60,61
 480 393 480 393 491 381.5 c 128,-1,62
 502 370 502 370 502 354 c 0,63,64
 502 346 502 346 478.5 292 c 128,-1,65
 455 238 455 238 455 234 c 0,66,67
 455 227 455 227 487 192 c 0,68,69
 523 152 523 152 523 134 c 0,70,71
 523 124 523 124 512 111 c 0,72,73
 500 99 500 99 481 99 c 0,74,75
 468 99 468 99 459.5 105 c 128,-1,76
 451 111 451 111 429 136 c 2,77,-1
 396 173 l 1,78,-1
 370 155 l 2,79,80
 343 136 343 136 299.5 122 c 128,-1,81
 256 108 256 108 221 107 c 0,82,83
 196 107 196 107 182.5 110.5 c 128,-1,84
 169 114 169 114 141 128 c 0,85,86
 99 149 99 149 86 162 c 0,87,88
 78 171 78 171 66 210.5 c 128,-1,89
 54 250 54 250 54 269 c 0,90,91
 55 286 55 286 83.5 339 c 128,-1,92
 112 392 112 392 125 401 c 2,93,-1
 140 411 l 1,94,-1
 126 428 l 2,95,96
 115 441 115 441 105 470.5 c 128,-1,97
 95 500 95 500 95 518 c 0,98,99
 95 531 95 531 111 562 c 128,-1,100
 127 593 127 593 143 611 c 0,101,102
 161 631 161 631 193 640 c 0,38,39
EndSplineSet
Validated: 1
EndChar

StartChar: asterisk
Encoding: 42 42 11
Width: 422
GlyphClass: 1
Flags: W
LayerCount: 2
Fore
SplineSet
175 641 m 128,-1,1
 184 650 184 650 193 650 c 0,2,3
 206 650 206 650 223 629 c 0,4,5
 239 608 239 608 239 593 c 0,6,7
 239 591 239 591 238.5 587 c 128,-1,8
 238 583 238 583 238 580 c 0,9,10
 237 574 237 574 237 565 c 0,11,12
 237 551 237 551 245 544 c 0,13,14
 251 538 251 538 259 538 c 0,15,16
 269 538 269 538 300 545 c 0,17,18
 328 551 328 551 342 551 c 0,19,20
 363 551 363 551 366 529 c 0,21,22
 366 528 366 528 366.5 526 c 128,-1,23
 367 524 367 524 367 523 c 0,24,25
 367 512 367 512 344 502 c 0,26,27
 320 491 320 491 298 491 c 0,28,29
 283 491 283 491 271 485 c 128,-1,30
 259 479 259 479 259 472 c 0,31,32
 259 469 259 469 281 445 c 0,33,34
 314 409 314 409 314 393 c 0,35,36
 314 385 314 385 308 373 c 0,37,38
 297 349 297 349 288 349 c 0,39,40
 281 349 281 349 256 363 c 0,41,42
 227 379 227 379 219 399 c 0,43,44
 210 419 210 419 208 419 c 0,45,46
 205 419 205 419 192 379 c 128,-1,47
 179 339 179 339 171 334 c 0,48,49
 169 333 169 333 165 333 c 0,50,51
 149 333 149 333 121.5 348.5 c 128,-1,52
 94 364 94 364 94 374 c 0,53,54
 94 380 94 380 127 424 c 0,55,56
 157 465 157 465 157 471 c 2,57,-1
 156 473 l 2,58,59
 153 477 153 477 133 477 c 0,60,61
 119 477 119 477 110 476 c 128,-1,62
 101 475 101 475 87 475 c 0,63,64
 66 475 66 475 61 480 c 0,65,66
 53 486 53 486 53 521 c 0,67,68
 53 546 53 546 59 552 c 0,69,70
 64 557 64 557 84 557 c 0,71,72
 110 557 110 557 132 550 c 0,73,74
 160 542 160 542 162 542 c 0,75,76
 166 542 166 542 166 587 c 128,-1,0
 166 632 166 632 175 641 c 128,-1,1
EndSplineSet
Validated: 1
EndChar

StartChar: comma
Encoding: 44 44 12
Width: 206
GlyphClass: 1
Flags: W
LayerCount: 2
Fore
SplineSet
84 199 m 0,0,1
 94 212 94 212 114 212 c 0,2,3
 136 212 136 212 144.5 203.5 c 128,-1,4
 153 195 153 195 153 172 c 0,5,6
 153 147 153 147 133 103 c 0,7,8
 111 52 111 52 104.5 43.5 c 128,-1,9
 98 35 98 35 84 33 c 0,10,11
 82 33 82 33 79.5 32.5 c 128,-1,12
 77 32 77 32 76 32 c 0,13,14
 54 32 54 32 54 51 c 0,15,16
 54 57 54 57 55 60 c 0,17,18
 73 140 73 140 73 169 c 0,19,20
 73 184 73 184 84 199 c 0,0,1
EndSplineSet
Validated: 1
EndChar

StartChar: hyphen
Encoding: 45 45 13
Width: 318
GlyphClass: 1
Flags: W
LayerCount: 2
Fore
SplineSet
78 335 m 0,0,1
 94 345 94 345 108 347 c 128,-1,2
 122 349 122 349 181 349 c 0,3,4
 261 349 261 349 265 345 c 0,5,6
 266 344 266 344 266 341 c 0,7,8
 266 332 266 332 261 314 c 2,9,-1
 254 287 l 1,10,-1
 207 284 l 2,11,12
 139 280 139 280 109 280 c 0,13,14
 64 280 64 280 56 284 c 0,15,16
 51 288 51 288 51 295 c 0,17,18
 51 318 51 318 78 335 c 0,0,1
EndSplineSet
Validated: 1
EndChar

StartChar: period
Encoding: 46 46 14
Width: 212
GlyphClass: 1
Flags: W
LayerCount: 2
Fore
SplineSet
98 219 m 0,0,1
 117 227 117 227 126 227 c 0,2,3
 151 227 151 227 157 177 c 0,4,5
 158 170 158 170 158 159 c 0,6,7
 158 147 158 147 147 132 c 0,8,9
 138 120 138 120 132 117 c 128,-1,10
 126 114 126 114 109 114 c 0,11,12
 82 114 82 114 67 127 c 128,-1,13
 52 140 52 140 52 163 c 0,14,15
 52 200 52 200 98 219 c 0,0,1
EndSplineSet
Validated: 1
EndChar

StartChar: slash
Encoding: 47 47 15
Width: 367
GlyphClass: 1
Flags: W
LayerCount: 2
Fore
SplineSet
240 595 m 0,0,1
 250 609 250 609 261 609 c 0,2,3
 270 609 270 609 276 608 c 0,4,5
 303 604 303 604 306 602 c 0,6,7
 311 599 311 599 311 589 c 0,8,9
 311 563 311 563 273 476 c 0,10,11
 234 383 234 383 234 374 c 0,12,13
 234 364 234 364 225 351 c 0,14,15
 218 342 218 342 209 321 c 0,16,17
 204 305 204 305 179 247 c 0,18,19
 158 200 158 200 158 187 c 0,20,21
 158 180 158 180 161 168 c 0,22,23
 165 150 165 150 165 147 c 0,24,25
 165 136 165 136 153.5 133 c 128,-1,26
 142 130 142 130 107 130 c 0,27,28
 59 130 59 130 56 138 c 2,29,-1
 56 140 l 2,30,31
 55 141 55 141 55 142 c 0,32,33
 55 152 55 152 111 292 c 0,34,35
 211 553 211 553 240 595 c 0,0,1
EndSplineSet
Validated: 1
EndChar

StartChar: zero
Encoding: 48 48 16
Width: 409
GlyphClass: 1
Flags: W
LayerCount: 2
Fore
SplineSet
208 480 m 0,0,1
 185 486 185 486 180 489 c 0,2,3
 172 491 172 491 164 485 c 0,4,5
 156 478 156 478 151 403 c 0,6,7
 146 341 146 341 146 295 c 0,8,9
 146 255 146 255 154 252 c 0,10,11
 164 248 164 248 202 248 c 2,12,-1
 210 248 l 2,13,14
 245 248 245 248 252 260.5 c 128,-1,15
 259 273 259 273 259 341 c 2,16,-1
 259 362 l 1,17,-1
 259 459 l 1,18,-1
 245 467 l 2,19,20
 241 469 241 469 208 480 c 0,0,1
161 594 m 2,21,22
 175 595 175 595 195 595.5 c 128,-1,23
 215 596 215 596 237.5 597 c 128,-1,24
 260 598 260 598 268 598 c 2,25,-1
 314 599 l 1,26,27
 322 590 322 590 336.5 572 c 128,-1,28
 351 554 351 554 358 545 c 1,29,-1
 355 483 l 2,30,31
 352 429 352 429 346 297 c 0,32,33
 341 186 341 186 334 172 c 0,34,35
 328 163 328 163 306 159 c 0,36,37
 289 156 289 156 146 140 c 0,38,39
 116 137 116 137 97 137 c 2,40,-1
 91 137 l 1,41,42
 83 141 83 141 68 164 c 2,43,-1
 50 189 l 1,44,45
 50 244 50 244 52 354 c 128,-1,46
 54 464 54 464 54 519 c 1,47,-1
 102 591 l 1,48,-1
 161 594 l 2,21,22
EndSplineSet
Validated: 1
EndChar

StartChar: one
Encoding: 49 49 17
Width: 303
GlyphClass: 1
Flags: W
LayerCount: 2
Fore
SplineSet
183 607 m 2,0,1
 232 612 232 612 236 614 c 2,2,-1
 237 614 l 2,3,4
 245 614 245 614 247 572.5 c 128,-1,5
 249 531 249 531 251 367 c 2,6,-1
 253 132 l 1,7,-1
 210 134 l 2,8,9
 168 136 168 136 160 142 c 0,10,11
 157 145 157 145 157 179 c 0,12,13
 157 241 157 241 169 403 c 0,14,15
 172 443 172 443 172 459 c 0,16,17
 172 478 172 478 167 481 c 0,18,19
 161 484 161 484 157 484 c 0,20,21
 145 484 145 484 132 457 c 0,22,23
 120 433 120 433 112 433 c 2,24,-1
 110 434 l 2,25,26
 108 434 108 434 107 434 c 0,27,28
 96 436 96 436 75.5 445 c 128,-1,29
 55 454 55 454 55 458 c 0,30,31
 55 461 55 461 102 532 c 2,32,-1
 149 604 l 1,33,-1
 183 607 l 2,0,1
EndSplineSet
Validated: 1
EndChar

StartChar: two
Encoding: 50 50 18
Width: 421
GlyphClass: 1
Flags: W
LayerCount: 2
Fore
SplineSet
281 627 m 0,0,1
 316 634 316 634 327 634 c 0,2,3
 343 634 343 634 348 622 c 128,-1,4
 353 610 353 610 353 575 c 0,5,6
 353 537 353 537 352 510 c 0,7,8
 350 419 350 419 344.5 399.5 c 128,-1,9
 339 380 339 380 311 364 c 0,10,11
 271 343 271 343 225 314 c 128,-1,12
 179 285 179 285 168 275 c 0,13,14
 152 259 152 259 152 244 c 0,15,16
 152 222 152 222 178 213 c 0,17,18
 186 211 186 211 194 211 c 0,19,20
 234 211 234 211 274 230 c 0,21,22
 286 236 286 236 314 244 c 0,23,24
 328 247 328 247 333 247 c 0,25,26
 340 247 340 247 347 241 c 128,-1,27
 354 235 354 235 361 208.5 c 128,-1,28
 368 182 368 182 368 164 c 0,29,30
 368 157 368 157 367 154 c 0,31,32
 365 144 365 144 348 137 c 128,-1,33
 331 130 331 130 274 118 c 0,34,35
 242 110 242 110 178 96 c 0,36,37
 107 79 107 79 85 79 c 0,38,39
 71 79 71 79 66 87 c 0,40,41
 60 98 60 98 56 150.5 c 128,-1,42
 52 203 52 203 52 249 c 0,43,44
 52 292 52 292 56 296 c 0,45,46
 62 303 62 303 108.5 334.5 c 128,-1,47
 155 366 155 366 181 380 c 0,48,49
 199 389 199 389 226.5 408.5 c 128,-1,50
 254 428 254 428 260 434 c 0,51,52
 265 441 265 441 265 464 c 0,53,54
 265 512 265 512 253 534 c 0,55,56
 246 550 246 550 238 555.5 c 128,-1,57
 230 561 230 561 213 561 c 0,58,59
 200 561 200 561 160 556 c 0,60,61
 101 548 101 548 92 548 c 0,62,63
 81 548 81 548 73 556 c 0,64,65
 67 562 67 562 67 577 c 0,66,67
 67 599 67 599 78 607 c 0,68,69
 84 613 84 613 167 617 c 0,70,71
 252 621 252 621 281 627 c 0,0,1
EndSplineSet
Validated: 1
EndChar

StartChar: three
Encoding: 51 51 19
Width: 392
GlyphClass: 1
Flags: W
LayerCount: 2
Fore
SplineSet
83 585 m 0,0,1
 97 599 97 599 101 599 c 0,2,3
 103 599 103 599 136 588 c 0,4,5
 165 578 165 578 216 576 c 0,6,7
 250 575 250 575 258.5 573 c 128,-1,8
 267 571 267 571 273 562 c 0,9,10
 274 561 274 561 298 533.5 c 128,-1,11
 322 506 322 506 326 490 c 0,12,13
 333 469 333 469 322 463 c 0,14,15
 314 458 314 458 287.5 432 c 128,-1,16
 261 406 261 406 249 389 c 2,17,-1
 238 373 l 1,18,-1
 261 352 l 2,19,20
 287 330 287 330 309 320 c 0,21,22
 334 306 334 306 336 304 c 0,23,24
 339 299 339 299 339 277 c 0,25,26
 339 214 339 214 331 198 c 0,27,28
 325 187 325 187 312 187 c 0,29,30
 301 187 301 187 262 172 c 0,31,32
 148 127 148 127 112 121 c 0,33,34
 110 121 110 121 107 120.5 c 128,-1,35
 104 120 104 120 103 120 c 0,36,37
 92 120 92 120 76 136 c 0,38,39
 53 159 53 159 53 188 c 0,40,41
 53 200 53 200 58 215 c 128,-1,42
 63 230 63 230 68 233.5 c 128,-1,43
 73 237 73 237 94 239 c 0,44,45
 125 243 125 243 148 256 c 0,46,47
 172 269 172 269 183 269 c 0,48,49
 194 270 194 270 184 277 c 0,50,51
 172 285 172 285 178 285 c 0,52,53
 182 285 182 285 170 299 c 0,54,55
 149 320 149 320 149 341 c 0,56,57
 149 367 149 367 188 415 c 0,58,59
 215 450 215 450 215 465 c 0,60,61
 215 482 215 482 188 482 c 0,62,63
 184 482 184 482 166 480 c 0,64,65
 128 474 128 474 110 474 c 0,66,67
 86 474 86 474 77 485 c 0,68,69
 63 504 63 504 63 530 c 0,70,71
 63 565 63 565 83 585 c 0,0,1
EndSplineSet
Validated: 1
EndChar

StartChar: four
Encoding: 52 52 20
Width: 447
GlyphClass: 1
Flags: W
LayerCount: 2
Fore
SplineSet
245 393 m 0,0,1
 245 409 245 409 236 409 c 0,2,3
 226 409 226 409 213 394 c 0,4,5
 200 381 200 381 200 376 c 0,6,7
 200 372 200 372 211 372 c 0,8,9
 245 372 245 372 245 393 c 0,0,1
222 590 m 0,10,11
 242 593 242 593 290 593 c 0,12,13
 319 593 319 593 331 591 c 0,14,15
 346 588 346 588 358 579 c 0,16,17
 369 570 369 570 369 561 c 0,18,19
 369 558 369 558 368.5 554.5 c 128,-1,20
 368 551 368 551 367 545 c 128,-1,21
 366 539 366 539 365 534 c 0,22,23
 361 515 361 515 361 483 c 0,24,25
 361 400 361 400 380 372 c 0,26,27
 393 353 393 353 393 324 c 0,28,29
 393 276 393 276 368 270 c 0,30,31
 359 267 359 267 359 246 c 0,32,33
 359 244 359 244 361 196 c 0,34,35
 363 160 363 160 363 153 c 0,36,37
 363 129 363 129 356 121.5 c 128,-1,38
 349 114 349 114 328 114 c 128,-1,39
 307 114 307 114 293 115 c 0,40,41
 255 117 255 117 243.5 122 c 128,-1,42
 232 127 232 127 232 145 c 0,43,44
 232 156 232 156 235 177 c 0,45,46
 240 215 240 215 240 241 c 0,47,48
 240 257 240 257 237.5 260.5 c 128,-1,49
 235 264 235 264 224 266 c 0,50,51
 221 267 221 267 215 267 c 0,52,53
 204 267 204 267 177 262 c 128,-1,54
 150 257 150 257 141 257 c 2,55,-1
 136 257 l 2,56,57
 125 259 125 259 99 278 c 128,-1,58
 73 297 73 297 63 312 c 0,59,60
 55 323 55 323 55 345 c 0,61,62
 55 357 55 357 59 358 c 0,63,64
 65 360 65 360 86 389 c 128,-1,65
 107 418 107 418 120 442 c 0,66,67
 130 460 130 460 159 496.5 c 128,-1,68
 188 533 188 533 198 556 c 0,69,70
 212 589 212 589 222 590 c 0,10,11
EndSplineSet
Validated: 1
EndChar

StartChar: five
Encoding: 53 53 21
Width: 390
GlyphClass: 1
Flags: W
LayerCount: 2
Fore
SplineSet
75 649 m 0,0,1
 83 660 83 660 91 660 c 0,2,3
 98 660 98 660 127 654 c 0,4,5
 171 645 171 645 236 642 c 0,6,7
 294 639 294 639 309 634 c 128,-1,8
 324 629 324 629 324 610 c 0,9,10
 324 608 324 608 323.5 604 c 128,-1,11
 323 600 323 600 323 598 c 2,12,-1
 322 576 l 1,13,-1
 291 576 l 2,14,15
 288 576 288 576 216 579 c 2,16,-1
 172 581 l 1,17,-1
 161 558 l 2,18,19
 148 534 148 534 148 494 c 0,20,21
 148 470 148 470 154 460 c 0,22,23
 158 453 158 453 207 419 c 0,24,25
 319 343 319 343 334 324 c 0,26,27
 340 318 340 318 340 283 c 0,28,29
 340 276 340 276 338 222 c 0,30,31
 335 151 335 151 331.5 129 c 128,-1,32
 328 107 328 107 318 103 c 1,33,-1
 315 103 l 2,34,35
 299 103 299 103 259 113 c 0,36,37
 226 121 226 121 175 132 c 0,38,39
 130 142 130 142 93.5 155 c 128,-1,40
 57 168 57 168 54 176 c 0,41,42
 54 177 54 177 53.5 179 c 128,-1,43
 53 181 53 181 53 183 c 0,44,45
 53 201 53 201 61 232.5 c 128,-1,46
 69 264 69 264 75 268 c 128,-1,47
 81 272 81 272 87 272 c 0,48,49
 99 272 99 272 133 258 c 0,50,51
 143 253 143 253 187 240 c 0,52,53
 203 235 203 235 214 235 c 0,54,55
 221 235 221 235 231 242 c 0,56,57
 247 253 247 253 247 272 c 0,58,59
 247 285 247 285 236 298 c 0,60,61
 218 316 218 316 154 358 c 0,62,63
 85 404 85 404 79 415 c 0,64,65
 74 425 74 425 70 532 c 0,66,67
 68 594 68 594 68 602 c 0,68,69
 68 641 68 641 75 649 c 0,0,1
EndSplineSet
Validated: 1
EndChar

StartChar: six
Encoding: 54 54 22
Width: 461
GlyphClass: 1
Flags: W
LayerCount: 2
Fore
SplineSet
301 201 m 0,0,1
 306 206 306 206 295 212 c 0,2,3
 285 217 285 217 285 212 c 0,4,5
 285 209 285 209 290 202 c 256,6,7
 295 195 295 195 301 201 c 0,0,1
238 241 m 0,8,9
 225 248 225 248 204 248 c 0,10,11
 192 248 192 248 192 245 c 0,12,13
 192 240 192 240 204.5 222 c 128,-1,14
 217 204 217 204 224 199 c 0,15,16
 234 192 234 192 247 192 c 0,17,18
 255 192 255 192 257 195 c 128,-1,19
 259 198 259 198 257 208 c 0,20,21
 254 222 254 222 254 228 c 0,22,23
 254 232 254 232 238 241 c 0,8,9
352 242 m 0,24,25
 345 258 345 258 329 258 c 0,26,27
 322 258 322 258 317 253 c 0,28,29
 311 247 311 247 311 236 c 128,-1,30
 311 225 311 225 317 219 c 0,31,32
 322 214 322 214 330 214 c 0,33,34
 339 214 339 214 346.5 220 c 128,-1,35
 354 226 354 226 354 234 c 0,36,37
 354 236 354 236 352 242 c 0,24,25
288 327 m 2,38,-1
 286 327 l 2,39,40
 273 327 273 327 241 319 c 2,41,-1
 199 308 l 1,42,-1
 226 305 l 2,43,44
 253 301 253 301 258 298 c 0,45,46
 268 292 268 292 294 283 c 128,-1,47
 320 274 320 274 327 274 c 2,48,-1
 328 274 l 1,49,50
 328 278 328 278 310 301 c 128,-1,51
 292 324 292 324 288 327 c 2,38,-1
168 605 m 2,52,-1
 198 624 l 1,53,-1
 276 622 l 2,54,55
 332 620 332 620 345 617.5 c 128,-1,56
 358 615 358 615 366 606 c 0,57,58
 377 593 377 593 377 574 c 0,59,60
 377 557 377 557 368 548 c 0,61,62
 360 540 360 540 335 540 c 0,63,64
 312 540 312 540 293 541 c 2,65,-1
 228 544 l 1,66,67
 198 511 198 511 173 487 c 1,68,-1
 169 429 l 2,69,70
 167 391 167 391 167 382 c 2,71,-1
 168 369 l 2,72,73
 169 368 169 368 199 388 c 0,74,75
 230 408 230 408 251 408 c 128,-1,76
 272 408 272 408 307.5 393 c 128,-1,77
 343 378 343 378 371 356 c 0,78,79
 392 339 392 339 399.5 327.5 c 128,-1,80
 407 316 407 316 407 294 c 0,81,82
 407 278 407 278 404 252 c 0,83,84
 400 220 400 220 390 202 c 128,-1,85
 380 184 380 184 342 140 c 2,86,-1
 327 122 l 1,87,-1
 266 122 l 2,88,89
 222 122 222 122 210 124 c 128,-1,90
 198 126 198 126 181 137 c 0,91,92
 126 172 126 172 107 198 c 128,-1,93
 88 224 88 224 70 290 c 0,94,95
 53 354 53 354 53 383 c 0,96,97
 53 405 53 405 54 420 c 0,98,99
 56 462 56 462 59 475.5 c 128,-1,100
 62 489 62 489 71 505 c 0,101,102
 105 563 105 563 168 605 c 2,52,-1
EndSplineSet
Validated: 33
EndChar

StartChar: seven
Encoding: 55 55 23
Width: 456
GlyphClass: 1
Flags: W
LayerCount: 2
Fore
SplineSet
112 630 m 0,0,1
 138 632 138 632 189 632 c 0,2,3
 201 632 201 632 227.5 631.5 c 128,-1,4
 254 631 254 631 268 631 c 0,5,6
 373 629 373 629 388 623 c 1,7,8
 402 610 402 610 402 583 c 2,9,-1
 402 576 l 2,10,11
 402 513 402 513 330 401 c 0,12,13
 295 348 295 348 250 234 c 0,14,15
 228 178 228 178 211.5 154.5 c 128,-1,16
 195 131 195 131 172 125 c 0,17,18
 166 123 166 123 154 123 c 0,19,20
 133 123 133 123 127 132 c 0,21,22
 124 136 124 136 124 144 c 0,23,24
 124 174 124 174 205 336 c 0,25,26
 213 353 213 353 240 397.5 c 128,-1,27
 267 442 267 442 281.5 475.5 c 128,-1,28
 296 509 296 509 296 535 c 0,29,30
 296 540 296 540 215 543 c 0,31,32
 147 545 147 545 122.5 551.5 c 128,-1,33
 98 558 98 558 74 579 c 0,34,35
 56 596 56 596 56 606 c 0,36,37
 56 626 56 626 112 630 c 0,0,1
EndSplineSet
Validated: 1
EndChar

StartChar: eight
Encoding: 56 56 24
Width: 318
GlyphClass: 1
Flags: W
LayerCount: 2
Fore
SplineSet
176 253 m 0,0,1
 178 289 178 289 178 301 c 0,2,3
 178 321 178 321 176 321 c 0,4,5
 173 321 173 321 173 311 c 128,-1,6
 173 301 173 301 163 293 c 0,7,8
 156 287 156 287 152 287.5 c 128,-1,9
 148 288 148 288 138 297 c 2,10,-1
 123 310 l 1,11,-1
 119 278 l 2,12,13
 116 252 116 252 116 215 c 2,14,-1
 116 183 l 1,15,-1
 140 179 l 2,16,17
 163 175 163 175 168 180 c 0,18,19
 172 184 172 184 176 253 c 0,0,1
180 567 m 0,20,21
 174 571 174 571 154 575 c 2,22,-1
 138 579 l 1,23,-1
 135 549 l 2,24,25
 130 492 130 492 130 450 c 0,26,27
 130 445 130 445 130.5 438.5 c 128,-1,28
 131 432 131 432 131 430 c 0,29,30
 131 419 131 419 135 419 c 128,-1,31
 139 419 139 419 144 436 c 0,32,33
 150 452 150 452 169 462 c 2,34,-1
 188 473 l 1,35,-1
 188 518 l 2,36,37
 188 562 188 562 180 567 c 0,20,21
146 657 m 2,38,39
 205 659 205 659 213 660 c 2,40,-1
 217 660 l 2,41,42
 232 660 232 660 248 638 c 2,43,-1
 267 615 l 1,44,-1
 260 528 l 2,45,46
 255 452 255 452 253 385 c 128,-1,47
 251 318 251 318 242 217 c 128,-1,48
 233 116 233 116 229 112 c 0,49,50
 224 107 224 107 154 105 c 0,51,52
 146 105 146 105 134.5 104.5 c 128,-1,53
 123 104 123 104 119 104 c 0,54,55
 88 104 88 104 78.5 109.5 c 128,-1,56
 69 115 69 115 59 136 c 0,57,58
 50 153 50 153 50 197 c 0,59,60
 50 231 50 231 51 255 c 0,61,62
 52 319 52 319 56 355.5 c 128,-1,63
 60 392 60 392 60 438 c 2,64,-1
 60 484 l 1,65,-1
 58 598 l 1,66,67
 64 607 64 607 76.5 626 c 128,-1,68
 89 645 89 645 95 655 c 1,69,-1
 146 657 l 2,38,39
EndSplineSet
Validated: 1
EndChar

StartChar: nine
Encoding: 57 57 25
Width: 343
GlyphClass: 1
Flags: W
LayerCount: 2
Fore
SplineSet
192 527 m 128,-1,1
 183 531 183 531 162 535 c 0,2,3
 154 537 154 537 152 537 c 0,4,5
 143 537 143 537 140 521.5 c 128,-1,6
 137 506 137 506 135 446 c 0,7,8
 133 406 133 406 133 400 c 0,9,10
 133 381 133 381 137 374.5 c 128,-1,11
 141 368 141 368 152 368 c 0,12,13
 157 368 157 368 177 370 c 2,14,-1
 205 374 l 1,15,-1
 205 448 l 2,16,17
 205 502 205 502 203 512.5 c 128,-1,0
 201 523 201 523 192 527 c 128,-1,1
117 626 m 0,18,19
 147 629 147 629 195 629 c 2,20,-1
 256 630 l 1,21,-1
 274 606 l 2,22,23
 291 584 291 584 291 559 c 128,-1,24
 291 534 291 534 287 490 c 0,25,26
 282 430 282 430 280 334 c 0,27,28
 279 251 279 251 271 215 c 128,-1,29
 263 179 263 179 240 153 c 0,30,31
 223 134 223 134 206 127 c 128,-1,32
 189 120 189 120 147 116 c 0,33,34
 138 115 138 115 124 115 c 0,35,36
 102 115 102 115 91 123 c 128,-1,37
 80 131 80 131 72 152 c 128,-1,38
 64 173 64 173 64 185 c 0,39,40
 64 202 64 202 77 202 c 128,-1,41
 90 202 90 202 111 194 c 0,42,43
 123 190 123 190 139 190 c 0,44,45
 165 190 165 190 182 201 c 0,46,47
 193 209 193 209 201.5 228 c 128,-1,48
 210 247 210 247 210 265 c 0,49,50
 210 289 210 289 203 289 c 0,51,52
 199 289 199 289 196 288 c 0,53,54
 182 285 182 285 136 279 c 0,55,56
 113 276 113 276 102 276 c 0,57,58
 87 276 87 276 80 281.5 c 128,-1,59
 73 287 73 287 62 306 c 0,60,61
 53 320 53 320 51.5 338 c 128,-1,62
 50 356 50 356 50 440 c 2,63,-1
 50 554 l 1,64,-1
 65 580 l 2,65,66
 80 606 80 606 90 615 c 128,-1,67
 100 624 100 624 117 626 c 0,18,19
EndSplineSet
Validated: 1
EndChar

StartChar: colon
Encoding: 58 58 26
Width: 211
GlyphClass: 1
Flags: W
LayerCount: 2
Fore
SplineSet
98 484 m 0,0,1
 112 491 112 491 124 491 c 0,2,3
 152 491 152 491 158 440 c 0,4,5
 159 433 159 433 159 422 c 0,6,7
 159 410 159 410 148 395 c 0,8,9
 139 383 139 383 133 380 c 128,-1,10
 127 377 127 377 110 377 c 0,11,12
 83 377 83 377 68 390 c 128,-1,13
 53 403 53 403 53 426 c 0,14,15
 53 447 53 447 68 462 c 0,16,17
 89 481 89 481 98 484 c 0,0,1
79 194 m 0,18,19
 90 208 90 208 112 208 c 0,20,21
 124 208 124 208 135 202 c 0,22,23
 149 193 149 193 149 168 c 0,24,25
 149 157 149 157 144 144 c 0,26,27
 137 128 137 128 131 124 c 128,-1,28
 125 120 125 120 109 119 c 2,29,-1
 108 119 l 2,30,31
 91 119 91 119 80 133 c 128,-1,32
 69 147 69 147 69 165 c 128,-1,33
 69 183 69 183 79 194 c 0,18,19
EndSplineSet
Validated: 1
EndChar

StartChar: semicolon
Encoding: 59 59 27
Width: 214
GlyphClass: 1
Flags: W
LayerCount: 2
Fore
SplineSet
99 482 m 0,0,1
 116 491 116 491 127 491 c 0,2,3
 156 491 156 491 162 440 c 0,4,5
 163 433 163 433 163 423 c 0,6,7
 163 410 163 410 152 395 c 0,8,9
 143 383 143 383 136 380 c 128,-1,10
 129 377 129 377 112 377 c 0,11,12
 85 377 85 377 70.5 390 c 128,-1,13
 56 403 56 403 56 426 c 0,14,15
 56 460 56 460 99 482 c 0,0,1
82 192 m 0,16,17
 92 207 92 207 112 207 c 0,18,19
 134 207 134 207 142.5 198.5 c 128,-1,20
 151 190 151 190 151 167 c 0,21,22
 151 142 151 142 131 98 c 0,23,24
 109 47 109 47 102.5 38.5 c 128,-1,25
 96 30 96 30 82 28 c 0,26,27
 80 28 80 28 77.5 27.5 c 128,-1,28
 75 27 75 27 74 27 c 0,29,30
 52 27 52 27 52 46 c 0,31,32
 52 52 52 52 53 55 c 0,33,34
 71 133 71 133 71 162 c 0,35,36
 71 177 71 177 82 192 c 0,16,17
EndSplineSet
Validated: 1
EndChar

StartChar: less
Encoding: 60 60 28
Width: 606
GlyphClass: 1
Flags: W
LayerCount: 2
Fore
SplineSet
397 602 m 0,0,1
 416 614 416 614 441 614 c 0,2,3
 444 614 444 614 453.5 613.5 c 128,-1,4
 463 613 463 613 470 613 c 0,5,6
 518 611 518 611 535 602 c 128,-1,7
 552 593 552 593 552 567 c 0,8,9
 552 554 552 554 549 534 c 0,10,11
 545 511 545 511 541.5 502.5 c 128,-1,12
 538 494 538 494 528 485 c 0,13,14
 506 466 506 466 376 423 c 0,15,16
 354 416 354 416 347.5 411 c 128,-1,17
 341 406 341 406 339 397 c 0,18,19
 338 393 338 393 338 386 c 0,20,21
 338 370 338 370 351.5 361 c 128,-1,22
 365 352 365 352 411 336 c 0,23,24
 519 299 519 299 536 279 c 0,25,26
 545 268 545 268 550 231 c 0,27,28
 553 210 553 210 553 201 c 0,29,30
 553 189 553 189 547 180 c 0,31,32
 532 156 532 156 456 156 c 0,33,34
 429 156 429 156 417.5 160 c 128,-1,35
 406 164 406 164 372 184 c 0,36,37
 318 215 318 215 232 259 c 0,38,39
 104 325 104 325 79 342.5 c 128,-1,40
 54 360 54 360 54 386 c 0,41,42
 54 402 54 402 58 408 c 128,-1,43
 62 414 62 414 81 428 c 0,44,45
 112 450 112 450 201 496 c 0,46,47
 337 565 337 565 397 602 c 0,0,1
EndSplineSet
Validated: 1
EndChar

StartChar: equal
Encoding: 61 61 29
Width: 512
GlyphClass: 1
Flags: W
LayerCount: 2
Fore
SplineSet
268 554 m 0,0,1
 409 556 409 556 423 557 c 2,2,-1
 434 557 l 2,3,4
 449 557 449 557 454.5 552 c 128,-1,5
 460 547 460 547 460 534 c 0,6,7
 460 530 460 530 456 498 c 0,8,9
 449 454 449 454 443 447 c 0,10,11
 431 432 431 432 367 430 c 0,12,13
 359 430 359 430 279 428 c 2,14,-1
 128 425 l 1,15,-1
 96 445 l 2,16,17
 69 463 69 463 62.5 472.5 c 128,-1,18
 56 482 56 482 52 506 c 0,19,20
 50 518 50 518 50 521 c 0,21,22
 50 530 50 530 59 540 c 0,23,24
 70 552 70 552 86 552 c 0,25,26
 99 552 99 552 110 545 c 0,27,28
 123 538 123 538 132 545 c 0,29,30
 138 551 138 551 268 554 c 0,0,1
101 336 m 2,31,-1
 134 359 l 1,32,-1
 276 359 l 2,33,34
 418 359 418 359 423 356 c 0,35,36
 432 350 432 350 432 328 c 0,37,38
 432 303 432 303 422.5 276.5 c 128,-1,39
 413 250 413 250 401 247 c 0,40,41
 394 244 394 244 347 244 c 0,42,43
 284 244 284 244 189 238 c 0,44,45
 124 234 124 234 94 234 c 0,46,47
 70 234 70 234 61 240 c 0,48,49
 50 247 50 247 50 256 c 0,50,51
 50 259 50 259 52 273 c 0,52,53
 55 295 55 295 62 304 c 128,-1,54
 69 313 69 313 101 336 c 2,31,-1
EndSplineSet
Validated: 1
EndChar

StartChar: greater
Encoding: 62 62 30
Width: 600
GlyphClass: 1
Flags: W
LayerCount: 2
Fore
SplineSet
86 625 m 0,0,1
 109 630 109 630 140 630 c 0,2,3
 180 630 180 630 194 623 c 0,4,5
 300 561 300 561 391 515 c 0,6,7
 486 467 486 467 515 446 c 0,8,9
 537 429 537 429 541 423 c 128,-1,10
 545 417 545 417 545 401 c 128,-1,11
 545 385 545 385 541 379 c 128,-1,12
 537 373 537 373 518 358 c 0,13,14
 482 331 482 331 383 282 c 0,15,16
 282 231 282 231 230 199 c 0,17,18
 197 179 197 179 186.5 175 c 128,-1,19
 176 171 176 171 149 171 c 0,20,21
 72 171 72 171 57 195 c 0,22,23
 51 204 51 204 51 216 c 0,24,25
 51 226 51 226 54 247 c 0,26,27
 58 274 58 274 61.5 283 c 128,-1,28
 65 292 65 292 76 301 c 0,29,30
 86 309 86 309 147 334.5 c 128,-1,31
 208 360 208 360 244 370 c 0,32,33
 255 373 255 373 261 393 c 0,34,35
 267 416 267 416 266 420 c 0,36,37
 264 426 264 426 180 455 c 0,38,39
 115 478 115 478 90 491.5 c 128,-1,40
 65 505 65 505 60 519 c 0,41,42
 57 529 57 529 53 563 c 0,43,44
 52 569 52 569 52 580 c 0,45,46
 52 616 52 616 86 625 c 0,0,1
EndSplineSet
Validated: 1
EndChar

StartChar: question
Encoding: 63 63 31
Width: 419
GlyphClass: 1
Flags: W
LayerCount: 2
Fore
SplineSet
206 496 m 0,0,1
 186 496 186 496 180 492 c 128,-1,2
 174 488 174 488 174 474 c 128,-1,3
 174 460 174 460 175 451 c 2,4,-1
 175 438 l 2,5,6
 175 415 175 415 166 409 c 128,-1,7
 157 403 157 403 124 403 c 0,8,9
 98 403 98 403 89.5 405 c 128,-1,10
 81 407 81 407 74 415 c 0,11,12
 54 436 54 436 54 454 c 0,13,14
 54 462 54 462 57 476 c 0,15,16
 62 499 62 499 62 524 c 0,17,18
 62 546 62 546 80 562 c 0,19,20
 103 582 103 582 116.5 589 c 128,-1,21
 130 596 130 596 153 599 c 0,22,23
 177 602 177 602 234 604 c 2,24,-1
 254 604 l 2,25,26
 276 604 276 604 286 601 c 128,-1,27
 296 598 296 598 317 586 c 0,28,29
 348 569 348 569 354 561 c 0,30,31
 361 554 361 554 364 464 c 0,32,33
 366 412 366 412 366 405 c 0,34,35
 366 386 366 386 362 375.5 c 128,-1,36
 358 365 358 365 353.5 360 c 128,-1,37
 349 355 349 355 332 342 c 0,38,39
 323 335 323 335 320.5 329.5 c 128,-1,40
 318 324 318 324 318 309 c 2,41,-1
 318 294 l 1,42,-1
 318 278 l 2,43,44
 318 257 318 257 313 250.5 c 128,-1,45
 308 244 308 244 292 243 c 2,46,-1
 276 242 l 1,47,-1
 291 239 l 2,48,49
 302 237 302 237 304.5 231.5 c 128,-1,50
 307 226 307 226 308 195 c 2,51,-1
 308 183 l 2,52,53
 308 154 308 154 303 147 c 0,54,55
 297 140 297 140 258 140 c 0,56,57
 218 140 218 140 212 147 c 0,58,59
 207 154 207 154 203 177 c 0,60,61
 202 182 202 182 202 190 c 0,62,63
 202 201 202 201 224 222 c 2,64,-1
 247 243 l 1,65,-1
 230 243 l 2,66,67
 214 243 214 243 206 251 c 0,68,69
 200 258 200 258 197 317 c 0,70,71
 196 332 196 332 196 352 c 0,72,73
 196 374 196 374 202.5 381 c 128,-1,74
 209 388 209 388 236 404 c 0,75,76
 247 410 247 410 249.5 416 c 128,-1,77
 252 422 252 422 252 442 c 0,78,79
 252 472 252 472 242 484 c 128,-1,80
 232 496 232 496 206 496 c 0,0,1
EndSplineSet
Validated: 1
EndChar

StartChar: at
Encoding: 64 64 32
Width: 647
GlyphClass: 1
Flags: W
LayerCount: 2
Fore
SplineSet
293 309 m 0,0,1
 301 307 301 307 302 307 c 0,2,3
 308 307 308 307 308 314 c 0,4,5
 308 316 308 316 306 336 c 0,6,7
 305 359 305 359 301 359 c 0,8,9
 300 359 300 359 293 354 c 0,10,11
 281 345 281 345 281 329 c 0,12,13
 281 312 281 312 293 309 c 0,0,1
299 610 m 0,14,15
 312 612 312 612 350 612 c 0,16,17
 422 612 422 612 446 604 c 0,18,19
 462 599 462 599 492.5 570 c 128,-1,20
 523 541 523 541 537 519 c 0,21,22
 547 502 547 502 571 444 c 0,23,24
 593 391 593 391 593 356 c 0,25,26
 593 329 593 329 579 295 c 0,27,28
 553 235 553 235 519 218 c 0,29,30
 503 210 503 210 467.5 198.5 c 128,-1,31
 432 187 432 187 423 187 c 0,32,33
 416 187 416 187 374 207 c 0,34,35
 346 221 346 221 333.5 224.5 c 128,-1,36
 321 228 321 228 297 228 c 0,37,38
 240 228 240 228 208 263 c 0,39,40
 193 279 193 279 191 316 c 0,41,42
 190 324 190 324 190 338 c 0,43,44
 190 365 190 365 197 390 c 0,45,46
 203 413 203 413 208.5 422 c 128,-1,47
 214 431 214 431 227 440 c 0,48,49
 247 455 247 455 296 460 c 0,50,51
 334 464 334 464 342 464 c 0,52,53
 376 464 376 464 386 448 c 0,54,55
 393 438 393 438 404 383 c 0,56,57
 414 331 414 331 432 312 c 0,58,59
 448 296 448 296 458 296 c 0,60,61
 465 296 465 296 476 307 c 0,62,63
 498 332 498 332 498 375 c 0,64,65
 498 404 498 404 490 429 c 0,66,67
 481 459 481 459 470.5 474 c 128,-1,68
 460 489 460 489 438 504 c 0,69,70
 388 537 388 537 329 537 c 0,71,72
 288 537 288 537 259 520 c 0,73,74
 223 499 223 499 194.5 457.5 c 128,-1,75
 166 416 166 416 157 371 c 0,76,77
 154 358 154 358 154 343 c 0,78,79
 154 304 154 304 173.5 268 c 128,-1,80
 193 232 193 232 226 210 c 0,81,82
 262 185 262 185 296.5 177.5 c 128,-1,83
 331 170 331 170 407 169 c 2,84,-1
 495 169 l 1,85,-1
 512 146 l 2,86,87
 527 125 527 125 527 116 c 0,88,89
 527 112 527 112 526 110 c 0,90,91
 520 86 520 86 497 75 c 128,-1,92
 474 64 474 64 428 64 c 0,93,94
 407 64 407 64 396 65 c 0,95,96
 293 71 293 71 237 98 c 0,97,98
 166 132 166 132 125 181 c 0,99,100
 78 237 78 237 60 348 c 0,101,102
 53 384 53 384 53 402 c 0,103,104
 53 414 53 414 58 437 c 0,105,106
 64 466 64 466 74 482 c 128,-1,107
 84 498 84 498 113 526 c 0,108,109
 144 555 144 555 198 579.5 c 128,-1,110
 252 604 252 604 299 610 c 0,14,15
EndSplineSet
Validated: 1
EndChar

StartChar: A
Encoding: 65 65 33
AltUni2: 000061.ffffffff.0 000061.ffffffff.0
Width: 458
GlyphClass: 1
Flags: W
LayerCount: 2
Fore
SplineSet
258 477 m 2,0,-1
 244 537 l 1,1,-1
 228 537 l 2,2,3
 200 536 200 536 190 518 c 128,-1,4
 180 500 180 500 178 447 c 2,5,-1
 176 395 l 1,6,-1
 224 394 l 2,7,8
 229 394 229 394 237.5 393.5 c 128,-1,9
 246 393 246 393 249 393 c 0,10,11
 272 393 272 393 272 409 c 0,12,13
 272 416 272 416 258 477 c 2,0,-1
217 640 m 0,14,15
 242 643 242 643 272 643 c 2,16,-1
 286 643 l 2,17,18
 308 642 308 642 312 638 c 0,19,20
 320 629 320 629 336 536 c 0,21,22
 340 517 340 517 341 509 c 0,23,24
 354 426 354 426 369 349 c 0,25,26
 406 164 406 164 406 117 c 0,27,28
 406 111 406 111 362 102 c 0,29,30
 340 97 340 97 326 97 c 0,31,32
 318 97 318 97 315 102 c 0,33,34
 310 109 310 109 295 179 c 0,35,36
 283 237 283 237 277 244 c 0,37,38
 270 252 270 252 233 255 c 0,39,40
 229 256 229 256 225 256 c 0,41,42
 216 257 216 257 202 257 c 128,-1,43
 188 257 188 257 185 253 c 0,44,45
 181 247 181 247 177 199 c 0,46,47
 173 149 173 149 170 131 c 2,48,-1
 167 109 l 1,49,-1
 115 109 l 2,50,51
 63 109 63 109 56 114 c 0,52,53
 52 116 52 116 52 135 c 0,54,55
 52 174 52 174 74 346 c 0,56,57
 76 364 76 364 81.5 410 c 128,-1,58
 87 456 87 456 88 468 c 0,59,60
 97 540 97 540 101 552 c 128,-1,61
 105 564 105 564 122 575 c 0,62,63
 141 587 141 587 153 609 c 0,64,65
 163 628 163 628 170.5 632 c 128,-1,66
 178 636 178 636 217 640 c 0,14,15
EndSplineSet
Validated: 1
EndChar

StartChar: B
Encoding: 66 66 34
AltUni2: 000062.ffffffff.0 000062.ffffffff.0
Width: 451
GlyphClass: 1
Flags: W
LayerCount: 2
Fore
SplineSet
257 299 m 0,0,1
 250 303 250 303 212 307 c 0,2,3
 192 309 192 309 188 309 c 0,4,5
 173 309 173 309 168.5 301.5 c 128,-1,6
 164 294 164 294 164 271 c 2,7,-1
 164 250 l 1,8,-1
 166 205 l 1,9,-1
 212 206 l 2,10,11
 257 208 257 208 272 213.5 c 128,-1,12
 287 219 287 219 287 235 c 0,13,14
 287 250 287 250 276.5 272 c 128,-1,15
 266 294 266 294 257 299 c 0,0,1
252 526 m 2,16,-1
 244 542 l 1,17,-1
 204 542 l 2,18,19
 174 542 174 542 163.5 536.5 c 128,-1,20
 153 531 153 531 153 514 c 0,21,22
 153 509 153 509 155 493 c 0,23,24
 160 451 160 451 186 451 c 0,25,26
 192 451 192 451 199.5 452.5 c 128,-1,27
 207 454 207 454 217 456 c 128,-1,28
 227 458 227 458 235 459 c 0,29,30
 263 464 263 464 268 471 c 0,31,32
 271 476 271 476 271 479 c 0,33,34
 271 485 271 485 252 526 c 2,16,-1
52 608 m 128,-1,36
 54 614 54 614 202 614 c 0,37,38
 310 614 310 614 329.5 612.5 c 128,-1,39
 349 611 349 611 349 604 c 0,40,41
 349 594 349 594 353 594 c 0,42,43
 358 594 358 594 362 577 c 0,44,45
 366 561 366 561 380 532 c 0,46,47
 400 492 400 492 400 463 c 0,48,49
 400 454 400 454 396 450 c 128,-1,50
 392 446 392 446 381 441 c 0,51,52
 362 434 362 434 332 422 c 0,53,54
 321 418 321 418 323 407 c 0,55,56
 323 394 323 394 355 379 c 2,57,-1
 387 364 l 1,58,-1
 390 253 l 2,59,60
 391 230 391 230 391 190 c 0,61,62
 391 141 391 141 389 137 c 0,63,64
 384 132 384 132 357 128 c 0,65,66
 254 117 254 117 246 112 c 0,67,68
 235 106 235 106 105 95 c 0,69,70
 97 94 97 94 86 94 c 0,71,72
 71 94 71 94 68 104 c 0,73,74
 63 119 63 119 56.5 291 c 128,-1,75
 50 463 50 463 50 560 c 0,76,35
 50 602 50 602 52 608 c 128,-1,36
EndSplineSet
Validated: 1
EndChar

StartChar: C
Encoding: 67 67 35
AltUni2: 000063.ffffffff.0 000063.ffffffff.0
Width: 437
GlyphClass: 1
Flags: W
LayerCount: 2
Fore
SplineSet
60 615 m 128,-1,1
 63 618 63 618 179 623 c 128,-1,2
 295 628 295 628 331 628 c 2,3,-1
 335 628 l 1,4,-1
 353 627 l 1,5,-1
 353 582 l 2,6,7
 353 537 353 537 345 532 c 0,8,9
 338 527 338 527 284 527 c 2,10,-1
 230 527 l 1,11,-1
 203 497 l 2,12,13
 175 467 175 467 172 456 c 0,14,15
 171 454 171 454 171 440 c 0,16,17
 171 404 171 404 176 329 c 128,-1,18
 181 254 181 254 184 246 c 0,19,20
 187 239 187 239 214 239 c 0,21,22
 219 239 219 239 281 241 c 0,23,24
 347 243 347 243 350 243 c 0,25,26
 375 243 375 243 378 237 c 0,27,28
 381 229 381 229 385 178 c 0,29,30
 386 165 386 165 386 148 c 0,31,32
 386 125 386 125 380 121 c 0,33,34
 373 116 373 116 255 111 c 2,35,-1
 137 108 l 1,36,37
 79 166 79 166 50 196 c 1,38,-1
 53 404 l 2,39,0
 57 612 57 612 60 615 c 128,-1,1
EndSplineSet
Validated: 1
EndChar

StartChar: D
Encoding: 68 68 36
AltUni2: 000064.ffffffff.0 000064.ffffffff.0
Width: 465
GlyphClass: 1
Flags: W
LayerCount: 2
Fore
SplineSet
239 495 m 0,0,1
 220 507 220 507 190 507 c 0,2,3
 167 507 167 507 164 498 c 0,4,5
 160 486 160 486 160 332 c 0,6,7
 160 224 160 224 163 221 c 2,8,-1
 165 221 l 2,9,10
 176 221 176 221 227 235 c 128,-1,11
 278 249 278 249 282 253 c 0,12,13
 284 255 284 255 284 294 c 0,14,15
 284 338 284 338 283 365 c 0,16,17
 280 441 280 441 278 457.5 c 128,-1,18
 276 474 276 474 268 478 c 0,19,20
 251 486 251 486 239 495 c 0,0,1
56 614 m 0,21,22
 60 618 60 618 148 618 c 2,23,-1
 182 618 l 1,24,-1
 304 617 l 1,25,-1
 354 577 l 2,26,27
 397 542 397 542 409 530 c 0,28,29
 414 522 414 522 414 414 c 2,30,-1
 414 359 l 1,31,-1
 413 195 l 1,32,-1
 392 184 l 2,33,34
 370 170 370 170 366 166 c 0,35,36
 352 154 352 154 305.5 135 c 128,-1,37
 259 116 259 116 222 107 c 0,38,39
 71 72 71 72 55 72 c 2,40,-1
 52 72 l 2,41,42
 50 73 50 73 50 206 c 0,43,44
 50 604 50 604 56 614 c 0,21,22
EndSplineSet
Validated: 1
EndChar

StartChar: E
Encoding: 69 69 37
AltUni2: 000065.ffffffff.0 000065.ffffffff.0
Width: 404
GlyphClass: 1
Flags: W
LayerCount: 2
Fore
SplineSet
58 642 m 0,0,1
 61 648 61 648 83 649.5 c 128,-1,2
 105 651 105 651 196 651 c 2,3,-1
 249 651 l 2,4,5
 304 651 304 651 319 647 c 128,-1,6
 334 643 334 643 334 626 c 0,7,8
 334 622 334 622 330 590 c 0,9,10
 322 522 322 522 313 521 c 0,11,12
 277 521 277 521 239 522 c 2,13,-1
 209 522 l 2,14,15
 184 522 184 522 176.5 520 c 128,-1,16
 169 518 169 518 166 512 c 0,17,18
 160 502 160 502 160 474 c 0,19,20
 160 441 160 441 167 436 c 0,21,22
 172 431 172 431 237 427 c 128,-1,23
 302 423 302 423 306 419 c 0,24,25
 308 417 308 417 308 383 c 2,26,-1
 308 361 l 1,27,-1
 307 308 l 1,28,-1
 239 305 l 2,29,30
 170 301 170 301 168 299 c 0,31,32
 164 295 164 295 162 263 c 0,33,34
 161 254 161 254 161 241 c 128,-1,35
 161 228 161 228 166 224 c 0,36,37
 174 217 174 217 258 216 c 2,38,-1
 342 215 l 1,39,-1
 346 194 l 2,40,41
 353 149 353 149 353 125 c 0,42,43
 353 108 353 108 350 104 c 0,44,45
 346 98 346 98 267 98 c 2,46,-1
 203 98 l 2,47,48
 59 100 59 100 54 105 c 0,49,50
 50 108 50 108 50 268 c 0,51,52
 50 624 50 624 58 642 c 0,0,1
EndSplineSet
Validated: 1
EndChar

StartChar: F
Encoding: 70 70 38
AltUni2: 000066.ffffffff.0 000066.ffffffff.0
Width: 379
GlyphClass: 1
Flags: W
LayerCount: 2
Fore
SplineSet
54 646 m 0,0,1
 57 649 57 649 136 649 c 2,2,-1
 192 649 l 1,3,-1
 328 648 l 1,4,-1
 326 614 l 2,5,6
 321 531 321 531 312 522 c 0,7,8
 311 521 311 521 270 521 c 2,9,-1
 238 521 l 1,10,-1
 199 521 l 2,11,12
 176 521 176 521 170 519.5 c 128,-1,13
 164 518 164 518 161 512 c 0,14,15
 155 502 155 502 155 474 c 0,16,17
 155 441 155 441 162 436 c 0,18,19
 167 431 167 431 232 427 c 128,-1,20
 297 423 297 423 300 420 c 128,-1,21
 303 417 303 417 303 382 c 2,22,-1
 303 361 l 1,23,-1
 302 308 l 1,24,-1
 236 305 l 2,25,26
 172 301 172 301 167 298 c 0,27,28
 163 292 163 292 161 206 c 0,29,30
 159 126 159 126 152.5 112.5 c 128,-1,31
 146 99 146 99 107 99 c 2,32,-1
 101 99 l 2,33,34
 59 99 59 99 54 104 c 0,35,36
 50 108 50 108 50 356 c 0,37,38
 50 639 50 639 54 646 c 0,0,1
EndSplineSet
Validated: 1
EndChar

StartChar: G
Encoding: 71 71 39
AltUni2: 000067.ffffffff.0 000067.ffffffff.0
Width: 527
GlyphClass: 1
Flags: W
LayerCount: 2
Fore
SplineSet
142 677 m 0,0,1
 159 692 159 692 165 688 c 0,2,3
 172 685 172 685 272 681 c 2,4,-1
 373 678 l 1,5,-1
 373 575 l 1,6,-1
 342 553 l 2,7,8
 319 537 319 537 307.5 534 c 128,-1,9
 296 531 296 531 254 528 c 0,10,11
 196 524 196 524 193 521 c 0,12,13
 192 520 192 520 192 509 c 0,14,15
 192 477 192 477 205 341 c 0,16,17
 210 294 210 294 210 259 c 0,18,19
 210 227 210 227 215 222 c 0,20,21
 217 220 217 220 234 220 c 0,22,23
 259 220 259 220 293.5 223.5 c 128,-1,24
 328 227 328 227 332 231 c 0,25,26
 337 236 337 236 337 291 c 2,27,-1
 337 347 l 1,28,-1
 296 349 l 1,29,-1
 254 352 l 1,30,-1
 254 380 l 2,31,32
 254 405 254 405 264 439 c 2,33,-1
 273 468 l 1,34,-1
 326 468 l 2,35,36
 384 468 384 468 406 465 c 0,37,38
 425 463 425 463 433 458 c 128,-1,39
 441 453 441 453 455 435 c 2,40,-1
 476 409 l 1,41,-1
 472 370 l 2,42,43
 469 337 469 337 465 220 c 0,44,45
 461 108 461 108 458 103 c 128,-1,46
 455 98 455 98 334 98 c 0,47,48
 292 98 292 98 192 100 c 2,49,-1
 151 101 l 1,50,-1
 111 138 l 2,51,52
 85 163 85 163 78 173.5 c 128,-1,53
 71 184 71 184 68 202 c 0,54,55
 63 236 63 236 60 404 c 0,56,57
 54 585 54 585 52 595 c 0,58,59
 51 598 51 598 51 603 c 0,60,61
 51 610 51 610 58 616 c 128,-1,62
 65 622 65 622 87 637 c 0,63,64
 127 664 127 664 142 677 c 0,0,1
EndSplineSet
Validated: 1
EndChar

StartChar: H
Encoding: 72 72 40
AltUni2: 000068.ffffffff.0 000068.ffffffff.0
Width: 483
GlyphClass: 1
Flags: W
LayerCount: 2
Fore
SplineSet
96 637 m 0,0,1
 129 644 129 644 156 644 c 2,2,-1
 184 645 l 1,3,4
 184 615 184 615 185 553.5 c 128,-1,5
 186 492 186 492 186 461 c 1,6,-1
 220 462 l 2,7,8
 252 464 252 464 267 472.5 c 128,-1,9
 282 481 282 481 292 501 c 0,10,11
 300 517 300 517 300 534 c 0,12,13
 300 547 300 547 297 577 c 0,14,15
 295 611 295 611 295 616 c 0,16,17
 295 634 295 634 300 639.5 c 128,-1,18
 305 645 305 645 320 645 c 0,19,20
 322 645 322 645 327.5 644.5 c 128,-1,21
 333 644 333 644 336 644 c 0,22,23
 357 643 357 643 364.5 639 c 128,-1,24
 372 635 372 635 384 621 c 0,25,26
 399 605 399 605 418 577 c 2,27,-1
 433 554 l 1,28,-1
 430 427 l 2,29,30
 427 322 427 322 427 201 c 0,31,32
 427 103 427 103 421 94 c 0,33,34
 412 83 412 83 363 83 c 0,35,36
 328 83 328 83 323 91 c 0,37,38
 321 93 321 93 313.5 205 c 128,-1,39
 306 317 306 317 304 319 c 0,40,41
 300 323 300 323 243 325 c 2,42,-1
 186 326 l 1,43,-1
 184 238 l 2,44,45
 182 173 182 173 180 158.5 c 128,-1,46
 178 144 178 144 168 129 c 0,47,48
 154 107 154 107 144.5 101.5 c 128,-1,49
 135 96 135 96 108 93 c 0,50,51
 90 91 90 91 87 91 c 0,52,53
 75 91 75 91 72 96 c 0,54,55
 69 100 69 100 67 160 c 0,56,57
 57 535 57 535 51 591 c 0,58,59
 50 598 50 598 50 609 c 0,60,61
 50 624 50 624 57.5 628 c 128,-1,62
 65 632 65 632 96 637 c 0,0,1
EndSplineSet
Validated: 1
EndChar

StartChar: I
Encoding: 73 73 41
AltUni2: 000069.ffffffff.0 000069.ffffffff.0
Width: 416
GlyphClass: 1
Flags: W
LayerCount: 2
Fore
SplineSet
332 240 m 0,0,1
 356 240 356 240 361 231.5 c 128,-1,2
 366 223 366 223 366 192 c 0,3,4
 366 167 366 167 363.5 159.5 c 128,-1,5
 361 152 361 152 349 140 c 0,6,7
 335 126 335 126 307 121.5 c 128,-1,8
 279 117 279 117 161 113 c 0,9,10
 140 112 140 112 109 112 c 0,11,12
 72 112 72 112 63.5 121.5 c 128,-1,13
 55 131 55 131 52 168 c 0,14,15
 50 196 50 196 50 206 c 0,16,17
 50 217 50 217 51 220 c 0,18,19
 54 231 54 231 84.5 247.5 c 128,-1,20
 115 264 115 264 140 269 c 0,21,22
 161 273 161 273 165 279 c 0,23,24
 169 284 169 284 169 378 c 0,25,26
 169 448 169 448 166 455 c 0,27,28
 164 462 164 462 141 464 c 0,29,30
 119 464 119 464 86 483 c 2,31,-1
 52 503 l 1,32,-1
 53 544 l 2,33,34
 53 584 53 584 57 598.5 c 128,-1,35
 61 613 61 613 74 618 c 0,36,37
 83 621 83 621 120 621 c 0,38,39
 187 621 187 621 280 613 c 0,40,41
 316 610 316 610 326 607 c 128,-1,42
 336 604 336 604 348 592 c 0,43,44
 361 580 361 580 363.5 572.5 c 128,-1,45
 366 565 366 565 366 538 c 0,46,47
 366 501 366 501 360 497 c 0,48,49
 357 495 357 495 327 491 c 2,50,-1
 299 488 l 1,51,-1
 296 466 l 2,52,53
 294 448 294 448 294 390 c 2,54,-1
 294 348 l 2,55,56
 296 266 296 266 300 253 c 128,-1,57
 304 240 304 240 332 240 c 0,0,1
EndSplineSet
Validated: 1
EndChar

StartChar: J
Encoding: 74 74 42
AltUni2: 00006a.ffffffff.0 00006a.ffffffff.0
Width: 445
GlyphClass: 1
Flags: W
LayerCount: 2
Fore
SplineSet
69 585 m 0,0,1
 74 591 74 591 91.5 596 c 128,-1,2
 109 601 109 601 123 601 c 0,3,4
 124 601 124 601 127 600.5 c 128,-1,5
 130 600 130 600 132 600 c 0,6,7
 139 599 139 599 233.5 593.5 c 128,-1,8
 328 588 328 588 343 588 c 0,9,10
 352 588 352 588 373 569 c 0,11,12
 387 556 387 556 390 549 c 128,-1,13
 393 542 393 542 393 521 c 2,14,-1
 393 512 l 2,15,16
 393 478 393 478 386.5 470.5 c 128,-1,17
 380 463 380 463 350 460 c 2,18,-1
 321 456 l 1,19,-1
 318 435 l 2,20,21
 316 419 316 419 316 360 c 2,22,-1
 316 318 l 2,23,24
 316 308 316 308 316.5 283 c 128,-1,25
 317 258 317 258 317 244 c 0,26,27
 317 195 317 195 315 145 c 0,28,29
 314 90 314 90 311.5 74.5 c 128,-1,30
 309 59 309 59 299 42 c 0,31,32
 283 15 283 15 264.5 6.5 c 128,-1,33
 246 -2 246 -2 204 -3 c 2,34,-1
 195 -3 l 2,35,36
 116 -3 116 -3 88 17 c 0,37,38
 73 29 73 29 62.5 52.5 c 128,-1,39
 52 76 52 76 52 96 c 0,40,41
 52 115 52 115 61 122 c 0,42,43
 74 134 74 134 103.5 147.5 c 128,-1,44
 133 161 133 161 150 163 c 2,45,-1
 173 165 l 1,46,-1
 177 204 l 2,47,48
 180 235 180 235 180 297 c 0,49,50
 179 414 179 414 175 424 c 0,51,52
 172 432 172 432 155 432 c 0,53,54
 152 432 152 432 150 432 c 0,55,56
 132 433 132 433 95.5 452 c 128,-1,57
 59 471 59 471 57 481 c 0,58,59
 57 482 57 482 56.5 486 c 128,-1,60
 56 490 56 490 56 492 c 0,61,62
 56 513 56 513 60.5 546 c 128,-1,63
 65 579 65 579 69 585 c 0,0,1
EndSplineSet
Validated: 1
EndChar

StartChar: K
Encoding: 75 75 43
AltUni2: 00006b.ffffffff.0 00006b.ffffffff.0
Width: 503
GlyphClass: 1
Flags: W
LayerCount: 2
Fore
SplineSet
423 121 m 0,0,1
 420 121 420 121 415 113.5 c 128,-1,2
 410 106 410 106 406 106 c 0,3,4
 403 106 403 106 381 90 c 0,5,6
 363 75 363 75 354 75 c 0,7,8
 349 75 349 75 308.5 113 c 128,-1,9
 268 151 268 151 231 191 c 0,10,11
 210 215 210 215 200 215 c 0,12,13
 188 215 188 215 181 173 c 0,14,15
 174 124 174 124 174 112 c 2,16,-1
 174 90 l 1,17,-1
 149 90 l 2,18,19
 121 90 121 90 97 82 c 0,20,21
 79 77 79 77 71 77 c 0,22,23
 66 77 66 77 64 79 c 0,24,25
 60 83 60 83 55 262 c 128,-1,26
 50 441 50 441 50 547 c 0,27,28
 50 597 50 597 52 605 c 2,29,-1
 55 619 l 1,30,-1
 157 619 l 1,31,-1
 160 602 l 2,32,33
 162 594 162 594 169.5 553 c 128,-1,34
 177 512 177 512 180 500 c 0,35,36
 182 492 182 492 185.5 471.5 c 128,-1,37
 189 451 189 451 192 444 c 0,38,39
 196 437 196 437 215 437 c 0,40,41
 230 437 230 437 233 442 c 128,-1,42
 236 447 236 447 258 458 c 0,43,44
 287 473 287 473 292.5 488 c 128,-1,45
 298 503 298 503 298 564 c 2,46,-1
 298 635 l 1,47,-1
 318 633 l 2,48,49
 358 625 358 625 370 623 c 2,50,-1
 402 617 l 1,51,-1
 402 585 l 2,52,53
 403 565 403 565 410 534 c 128,-1,54
 417 503 417 503 417 480 c 0,55,56
 417 448 417 448 408 446 c 0,57,58
 396 441 396 441 383 428 c 0,59,60
 368 413 368 413 334 388 c 0,61,62
 301 363 301 363 297 356 c 0,63,64
 294 349 294 349 286 349 c 128,-1,65
 278 349 278 349 273 337 c 0,66,67
 272 335 272 335 272 331 c 0,68,69
 272 324 272 324 287 308 c 128,-1,70
 302 292 302 292 358 236 c 0,71,72
 448 148 448 148 448 145 c 0,73,74
 448 141 448 141 437.5 131 c 128,-1,75
 427 121 427 121 423 121 c 0,0,1
EndSplineSet
Validated: 1
EndChar

StartChar: L
Encoding: 76 76 44
AltUni2: 00006c.ffffffff.0 00006c.ffffffff.0
Width: 454
GlyphClass: 1
Flags: W
LayerCount: 2
Fore
SplineSet
122 654 m 0,0,1
 144 655 144 655 166.5 656.5 c 128,-1,2
 189 658 189 658 199 658.5 c 128,-1,3
 209 659 209 659 214 659 c 0,4,5
 224 659 224 659 225 656 c 0,6,7
 227 653 227 653 231 604 c 2,8,-1
 235 557 l 1,9,-1
 220 554 l 2,10,11
 197 549 197 549 191.5 545 c 128,-1,12
 186 541 186 541 184 529 c 0,13,14
 181 514 181 514 181 446 c 0,15,16
 181 233 181 233 190 224 c 0,17,18
 192 222 192 222 204 222 c 0,19,20
 220 222 220 222 276 228 c 0,21,22
 355 237 355 237 378 237 c 2,23,-1
 402 238 l 1,24,-1
 403 168 l 1,25,-1
 403 139 l 2,26,27
 403 97 403 97 401 95 c 0,28,29
 398 92 398 92 272 88 c 2,30,-1
 147 83 l 1,31,-1
 117 106 l 2,32,33
 81 132 81 132 76 142 c 0,34,35
 68 155 68 155 65 221 c 0,36,37
 65 225 65 225 65 228 c 0,38,39
 64 250 64 250 60 339.5 c 128,-1,40
 56 429 56 429 54 476 c 0,41,42
 50 561 50 561 50 622 c 0,43,44
 50 645 50 645 51 646 c 0,45,46
 55 650 55 650 122 654 c 0,0,1
EndSplineSet
Validated: 1
EndChar

StartChar: M
Encoding: 77 77 45
AltUni2: 00006d.ffffffff.0 00006d.ffffffff.0
Width: 610
GlyphClass: 1
Flags: W
LayerCount: 2
Fore
SplineSet
165 615 m 0,0,1
 169 619 169 619 191 619 c 0,2,3
 210 619 210 619 214.5 612 c 128,-1,4
 219 605 219 605 219 578 c 0,5,6
 219 554 219 554 227 544 c 128,-1,7
 235 534 235 534 235 506 c 128,-1,8
 235 478 235 478 242 460 c 0,9,10
 248 443 248 443 252 402 c 0,11,12
 254 369 254 369 260 361.5 c 128,-1,13
 266 354 266 354 290 354 c 0,14,15
 323 354 323 354 323 386 c 0,16,17
 323 395 323 395 331 421 c 0,18,19
 333 427 333 427 344 468 c 128,-1,20
 355 509 355 509 360 523 c 0,21,22
 363 534 363 534 370 560 c 128,-1,23
 377 586 377 586 383 601 c 0,24,25
 388 616 388 616 401 615 c 0,26,27
 514 605 514 605 522 594 c 0,28,29
 528 586 528 586 535 472 c 0,30,31
 544 335 544 335 546 319 c 0,32,33
 551 284 551 284 551 184 c 0,34,35
 551 85 551 85 556 70 c 0,36,37
 562 55 562 55 556 45 c 0,38,39
 552 38 552 38 537.5 34.5 c 128,-1,40
 523 31 523 31 438 20 c 2,41,-1
 416 17 l 1,42,-1
 416 36 l 1,43,44
 411 191 411 191 408.5 217.5 c 128,-1,45
 406 244 406 244 398 245 c 2,46,-1
 397 245 l 1,47,-1
 396 245 l 2,48,49
 379 245 379 245 338 168 c 0,50,51
 327 149 327 149 322 143.5 c 128,-1,52
 317 138 317 138 307 138 c 0,53,54
 303 138 303 138 289 140 c 0,55,56
 235 147 235 147 227 184 c 0,57,58
 223 201 223 201 216 212 c 0,59,60
 209 222 209 222 209 233 c 0,61,62
 209 243 209 243 203 249 c 0,63,64
 198 254 198 254 194 273 c 0,65,66
 192 284 192 284 188.5 287 c 128,-1,67
 185 290 185 290 175 290 c 2,68,-1
 160 290 l 1,69,-1
 162 238 l 1,70,-1
 162 209 l 2,71,72
 162 171 162 171 160 103 c 2,73,-1
 155 18 l 1,74,-1
 105 18 l 2,75,76
 54 18 54 18 52 24 c 0,77,78
 51 27 51 27 51 53 c 0,79,80
 51 141 51 141 62 345.5 c 128,-1,81
 73 550 73 550 80 577 c 2,82,-1
 88 606 l 1,83,-1
 124 608 l 2,84,85
 163 612 163 612 165 615 c 0,0,1
EndSplineSet
Validated: 1
EndChar

StartChar: N
Encoding: 78 78 46
AltUni2: 00006e.ffffffff.0 00006e.ffffffff.0
Width: 504
GlyphClass: 1
Flags: W
LayerCount: 2
Fore
SplineSet
53 615 m 0,0,1
 54 617 54 617 81 617 c 0,2,3
 163 617 163 617 175 610 c 0,4,5
 178 608 178 608 233 500 c 0,6,7
 286 396 286 396 295 387 c 0,8,9
 299 384 299 384 306 384 c 0,10,11
 324 384 324 384 332 396 c 0,12,13
 335 402 335 402 337 505 c 0,14,15
 338 608 338 608 345 614 c 0,16,17
 350 617 350 617 372 617 c 0,18,19
 442 617 442 617 452 607 c 0,20,21
 455 604 455 604 455 554 c 0,22,23
 455 449 455 449 446 266 c 128,-1,24
 437 83 437 83 431 76 c 0,25,26
 426 69 426 69 371 66 c 2,27,-1
 316 63 l 1,28,-1
 304 88 l 2,29,30
 294 108 294 108 230 253 c 0,31,32
 168 393 168 393 167 394 c 1,33,34
 167 324 167 324 168 238 c 0,35,36
 169 199 169 199 169 146 c 0,37,38
 169 81 169 81 162 74 c 0,39,40
 157 69 157 69 131.5 64.5 c 128,-1,41
 106 60 106 60 86 60 c 0,42,43
 73 60 73 60 70 63 c 0,44,45
 64 70 64 70 57 124 c 128,-1,46
 50 178 50 178 50 216 c 2,47,-1
 50 222 l 2,48,49
 51 242 51 242 51 361 c 2,50,-1
 51 442 l 1,51,-1
 51 512 l 2,52,53
 51 611 51 611 53 615 c 0,0,1
EndSplineSet
Validated: 1
EndChar

StartChar: O
Encoding: 79 79 47
AltUni2: 00006f.ffffffff.0 00006f.ffffffff.0
Width: 509
GlyphClass: 1
Flags: W
LayerCount: 2
Fore
SplineSet
305 283 m 2,0,-1
 264 323 l 1,1,-1
 196 323 l 2,2,3
 128 323 128 323 127 320 c 0,4,5
 127 312 127 312 122 274 c 0,6,7
 120 248 120 248 120 245 c 0,8,9
 120 230 120 230 131 213 c 2,10,-1
 144 194 l 1,11,-1
 226 194 l 2,12,13
 308 194 308 194 323.5 197.5 c 128,-1,14
 339 201 339 201 342 221 c 0,15,16
 344 231 344 231 344 233 c 0,17,18
 344 241 344 241 337.5 249 c 128,-1,19
 331 257 331 257 305 283 c 2,0,-1
391 369 m 128,-1,21
 381 379 381 379 370 379 c 0,22,23
 362 379 362 379 351 375 c 0,24,25
 336 369 336 369 336 359 c 0,26,27
 336 350 336 350 348 338 c 0,28,29
 362 324 362 324 377 324 c 0,30,31
 389 324 389 324 395 333 c 0,32,33
 401 340 401 340 401 348 c 0,34,20
 401 359 401 359 391 369 c 128,-1,21
368 535 m 2,35,-1
 365 556 l 1,36,-1
 155 556 l 1,37,-1
 144 533 l 2,38,39
 132 506 132 506 132 459 c 2,40,-1
 132 409 l 1,41,-1
 153 395 l 2,42,43
 174 380 174 380 185 380 c 0,44,45
 198 380 198 380 283 400 c 2,46,-1
 368 420 l 1,47,-1
 370 466 l 1,48,-1
 370 488 l 2,49,50
 370 517 370 517 368 535 c 2,35,-1
127 633 m 2,51,-1
 156 650 l 1,52,-1
 264 647 l 2,53,54
 345 644 345 644 362 642 c 128,-1,55
 379 640 379 640 394 631 c 0,56,57
 419 615 419 615 429.5 603 c 128,-1,58
 440 591 440 591 449 568 c 0,59,60
 458 547 458 547 458 530 c 0,61,62
 458 510 458 510 438 310 c 0,63,64
 437 303 437 303 436 290 c 0,65,66
 425 183 425 183 417 169 c 0,67,68
 413 161 413 161 398 150 c 0,69,70
 394 147 394 147 391 145 c 2,71,-1
 361 121 l 1,72,-1
 103 121 l 1,73,-1
 79 147 l 2,74,75
 62 165 62 165 58.5 174 c 128,-1,76
 55 183 55 183 52 212 c 0,77,78
 50 227 50 227 50 304 c 0,79,80
 50 395 50 395 53 496 c 128,-1,81
 56 597 56 597 60 601 c 0,82,83
 65 607 65 607 82 611 c 0,84,85
 97 614 97 614 127 633 c 2,51,-1
EndSplineSet
Validated: 1
EndChar

StartChar: P
Encoding: 80 80 48
AltUni2: 000070.ffffffff.0 000070.ffffffff.0
Width: 434
GlyphClass: 1
Flags: W
LayerCount: 2
Fore
SplineSet
231 496 m 0,0,1
 220 504 220 504 198 504 c 0,2,3
 185 504 185 504 173 501 c 0,4,5
 152 496 152 496 152 472 c 0,6,7
 152 462 152 462 157 439 c 0,8,9
 162 421 162 421 180 421 c 0,10,11
 187 421 187 421 203 424 c 128,-1,12
 219 427 219 427 227 427 c 0,13,14
 256 427 256 427 256 443 c 0,15,16
 256 448 256 448 251 460 c 0,17,18
 243 476 243 476 243 483 c 0,19,20
 243 488 243 488 231 496 c 0,0,1
54 561 m 2,21,-1
 57 572 l 1,22,-1
 328 572 l 1,23,-1
 338 550 l 2,24,25
 353 515 353 515 363 487 c 0,26,27
 381 441 381 441 381 430 c 0,28,29
 381 423 381 423 375 417 c 0,30,31
 366 406 366 406 360 406 c 0,32,33
 353 406 353 406 341 399 c 0,34,35
 329 393 329 393 277.5 378 c 128,-1,36
 226 363 226 363 197 357 c 0,37,38
 182 354 182 354 170 340 c 0,39,40
 160 327 160 327 160 293 c 0,41,42
 160 287 160 287 162 211 c 2,43,-1
 165 96 l 1,44,-1
 149 91 l 2,45,46
 131 85 131 85 107 85 c 0,47,48
 82 85 82 85 76 96 c 0,49,50
 71 105 71 105 66 209 c 0,51,52
 62 311 62 311 57 334 c 0,53,54
 51 356 51 356 51 483 c 0,55,56
 51 549 51 549 54 561 c 2,21,-1
EndSplineSet
Validated: 1
EndChar

StartChar: Q
Encoding: 81 81 49
AltUni2: 000071.ffffffff.0 000071.ffffffff.0
Width: 516
GlyphClass: 1
Flags: W
LayerCount: 2
Fore
SplineSet
224 554 m 0,0,1
 211 559 211 559 195 565 c 128,-1,2
 179 571 179 571 171 574 c 2,3,-1
 163 577 l 2,4,5
 161 577 161 577 163 553 c 0,6,7
 163 551 163 551 169.5 399.5 c 128,-1,8
 176 248 176 248 180 241 c 128,-1,9
 184 234 184 234 204.5 224.5 c 128,-1,10
 225 215 225 215 235 215 c 0,11,12
 238 215 238 215 239 216 c 0,13,14
 243 222 243 222 264 215 c 0,15,16
 276 212 276 212 286 212 c 0,17,18
 307 212 307 212 321.5 223.5 c 128,-1,19
 336 235 336 235 337 253 c 2,20,-1
 337 278 l 1,21,-1
 337 394 l 1,22,-1
 336 518 l 1,23,-1
 309 525 l 2,24,25
 282 532 282 532 224 554 c 0,0,1
97 629 m 0,26,27
 137 665 137 665 142 665 c 128,-1,28
 147 665 147 665 197 652 c 0,29,30
 248 638 248 638 313 626 c 0,31,32
 402 609 402 609 416 600 c 0,33,34
 425 594 425 594 442 570 c 2,35,-1
 466 537 l 1,36,-1
 466 184 l 1,37,-1
 417 144 l 2,38,39
 368 104 368 104 368 99 c 0,40,41
 368 97 368 97 393 78 c 0,42,43
 418 60 418 60 418 49 c 0,44,45
 418 43 418 43 411 26 c 0,46,47
 405 12 405 12 400 9.5 c 128,-1,48
 395 7 395 7 374 7 c 2,49,-1
 345 7 l 1,50,51
 335 18 335 18 314.5 41 c 128,-1,52
 294 64 294 64 283 75 c 1,53,-1
 167 75 l 1,54,-1
 114 118 l 2,55,56
 60 161 60 161 54 171 c 0,57,58
 50 178 50 178 50 362 c 0,59,60
 50 548 50 548 54 573 c 0,61,62
 56 585 56 585 64.5 596 c 128,-1,63
 73 607 73 607 97 629 c 0,26,27
EndSplineSet
Validated: 1
EndChar

StartChar: R
Encoding: 82 82 50
AltUni2: 000072.ffffffff.0 000072.ffffffff.0
Width: 470
GlyphClass: 1
Flags: W
LayerCount: 2
Fore
SplineSet
241 501 m 0,0,1
 238 503 238 503 197 507 c 0,2,3
 175 509 175 509 171 509 c 0,4,5
 158 509 158 509 154 505 c 0,6,7
 151 500 151 500 146 459.5 c 128,-1,8
 141 419 141 419 141 401 c 0,9,10
 141 394 141 394 142 393 c 128,-1,11
 143 392 143 392 144 392 c 0,12,13
 153 392 153 392 178 402 c 0,14,15
 201 411 201 411 208 417.5 c 128,-1,16
 215 424 215 424 227 448 c 0,17,18
 244 481 244 481 244 494 c 0,19,20
 244 500 244 500 241 501 c 0,0,1
133 602 m 0,21,22
 210 612 210 612 224 612 c 0,23,24
 230 612 230 612 235 611.5 c 128,-1,25
 240 611 240 611 245.5 609 c 128,-1,26
 251 607 251 607 253.5 606 c 128,-1,27
 256 605 256 605 262.5 600.5 c 128,-1,28
 269 596 269 596 271.5 594.5 c 128,-1,29
 274 593 274 593 283 586 c 128,-1,30
 292 579 292 579 296 576 c 0,31,32
 307 567 307 567 320.5 556.5 c 128,-1,33
 334 546 334 546 343.5 539 c 128,-1,34
 353 532 353 532 354 531 c 0,35,36
 364 524 364 524 364 519 c 0,37,38
 364 518 364 518 319 435 c 0,39,40
 275 354 275 354 275 347 c 0,41,42
 275 338 275 338 321 285 c 0,43,44
 415 176 415 176 415 167 c 0,45,46
 415 162 415 162 371 136.5 c 128,-1,47
 327 111 327 111 317 111 c 0,48,49
 309 111 309 111 247 173 c 128,-1,50
 185 235 185 235 182 235 c 128,-1,51
 179 235 179 235 175 175 c 0,52,53
 171 112 171 112 167.5 101 c 128,-1,54
 164 90 164 90 145 90 c 2,55,-1
 141 90 l 2,56,57
 112 90 112 90 90 93 c 0,58,59
 72 95 72 95 67 98.5 c 128,-1,60
 62 102 62 102 60 113 c 0,61,62
 57 130 57 130 53.5 292.5 c 128,-1,63
 50 455 50 455 50 545 c 0,64,65
 50 587 50 587 51 588 c 0,66,67
 56 593 56 593 133 602 c 0,21,22
EndSplineSet
Validated: 1
EndChar

StartChar: S
Encoding: 83 83 51
AltUni2: 000073.ffffffff.0 000073.ffffffff.0
Width: 483
GlyphClass: 1
Flags: W
LayerCount: 2
Fore
SplineSet
225 601 m 0,0,1
 331 617 331 617 348 617 c 2,2,-1
 351 617 l 1,3,-1
 374 616 l 1,4,-1
 386 577 l 2,5,6
 394 551 394 551 394 539 c 0,7,8
 394 535 394 535 393 534 c 128,-1,9
 392 533 392 533 353 525 c 128,-1,10
 314 517 314 517 275 508 c 128,-1,11
 236 499 236 499 236 497 c 0,12,13
 236 493 236 493 323 445 c 0,14,15
 410 398 410 398 414 384 c 0,16,17
 416 375 416 375 423 267.5 c 128,-1,18
 430 160 430 160 431 106 c 2,19,-1
 432 67 l 1,20,-1
 375 69 l 2,21,22
 314 71 314 71 306 75 c 0,23,24
 293 80 293 80 174.5 188.5 c 128,-1,25
 56 297 56 297 56 304 c 0,26,27
 56 312 56 312 82 338 c 128,-1,28
 108 364 108 364 116 364 c 0,29,30
 127 364 127 364 214 313 c 0,31,32
 296 266 296 266 306 266 c 0,33,34
 311 266 311 266 306 289 c 0,35,36
 304 304 304 304 288.5 318.5 c 128,-1,37
 273 333 273 333 203 384 c 0,38,39
 143 430 143 430 123 446.5 c 128,-1,40
 103 463 103 463 103 470 c 0,41,42
 103 486 103 486 109 528.5 c 128,-1,43
 115 571 115 571 118 577 c 0,44,45
 123 585 123 585 225 601 c 0,0,1
EndSplineSet
Validated: 1
EndChar

StartChar: T
Encoding: 84 84 52
AltUni2: 000074.ffffffff.0 000074.ffffffff.0
Width: 428
GlyphClass: 1
Flags: W
LayerCount: 2
Fore
SplineSet
65 609 m 0,0,1
 77 618 77 618 111 618 c 0,2,3
 130 618 130 618 237 613 c 2,4,-1
 338 608 l 1,5,-1
 357 589 l 2,6,7
 372 574 372 574 374.5 566.5 c 128,-1,8
 377 559 377 559 377 532 c 0,9,10
 377 501 377 501 371 494 c 128,-1,11
 365 487 365 487 334 482 c 0,12,13
 309 478 309 478 306 473 c 0,14,15
 304 470 304 470 302 310 c 2,16,-1
 301 153 l 1,17,-1
 273 128 l 2,18,19
 242 101 242 101 236 99 c 0,20,21
 234 98 234 98 225 98 c 0,22,23
 184 98 184 98 177 107 c 0,24,25
 175 109 175 109 171 280 c 2,26,-1
 167 450 l 1,27,-1
 144 453 l 2,28,29
 123 456 123 456 87 475 c 2,30,-1
 53 493 l 1,31,-1
 54 546 l 2,32,33
 54 584 54 584 55.5 593 c 128,-1,34
 57 602 57 602 65 609 c 0,0,1
EndSplineSet
Validated: 1
EndChar

StartChar: U
Encoding: 85 85 53
AltUni2: 000075.ffffffff.0 000075.ffffffff.0
Width: 513
GlyphClass: 1
Flags: W
LayerCount: 2
Fore
SplineSet
336 628 m 0,0,1
 340 634 340 634 376 634 c 2,2,-1
 411 634 l 1,3,4
 419 623 419 623 434 603 c 128,-1,5
 449 583 449 583 457 572 c 1,6,-1
 461 513 l 2,7,8
 463 467 463 467 463 393 c 2,9,-1
 463 340 l 1,10,-1
 461 224 l 1,11,-1
 440 205 l 2,12,13
 435 201 435 201 425 192 c 128,-1,14
 415 183 415 183 399.5 169.5 c 128,-1,15
 384 156 384 156 376 149 c 2,16,-1
 331 111 l 1,17,18
 303 110 303 110 246.5 110 c 128,-1,19
 190 110 190 110 162 109 c 1,20,-1
 109 153 l 2,21,22
 75 180 75 180 64 192 c 128,-1,23
 53 204 53 204 51 215 c 0,24,25
 50 219 50 219 50 277 c 0,26,27
 50 365 50 365 52.5 487.5 c 128,-1,28
 55 610 55 610 57 612 c 128,-1,29
 59 614 59 614 96.5 618.5 c 128,-1,30
 134 623 134 623 150 623 c 2,31,-1
 156 622 l 2,32,33
 157 621 157 621 166.5 453.5 c 128,-1,34
 176 286 176 286 176 283 c 0,35,36
 179 271 179 271 215 253 c 128,-1,37
 251 235 251 235 259 235 c 128,-1,38
 267 235 267 235 295 248.5 c 128,-1,39
 323 262 323 262 328 268 c 0,40,41
 333 273 333 273 333 396 c 2,42,-1
 333 540 l 2,43,44
 333 620 333 620 336 628 c 0,0,1
EndSplineSet
Validated: 1
EndChar

StartChar: V
Encoding: 86 86 54
AltUni2: 000076.ffffffff.0 000076.ffffffff.0
Width: 507
GlyphClass: 1
Flags: W
LayerCount: 2
Fore
SplineSet
340 646 m 0,0,1
 344 648 344 648 352 648 c 0,2,3
 372 648 372 648 428 641 c 0,4,5
 456 638 456 638 456 628 c 0,6,7
 456 612 456 612 379 297 c 0,8,9
 349 174 349 174 348 169 c 0,10,11
 331 100 331 100 326 96 c 0,12,13
 324 94 324 94 315 94 c 0,14,15
 297 94 297 94 258 101 c 0,16,17
 201 111 201 111 194 111 c 0,18,19
 191 111 191 111 169.5 188 c 128,-1,20
 148 265 148 265 123 360 c 128,-1,21
 98 455 98 455 97 458 c 0,22,23
 55 610 55 610 55 626 c 0,24,25
 55 633 55 633 60 638 c 0,26,27
 66 644 66 644 77 644 c 0,28,29
 78 644 78 644 118 640 c 0,30,31
 169 634 169 634 172 631 c 0,32,33
 176 627 176 627 187 577 c 0,34,35
 195 543 195 543 207 493.5 c 128,-1,36
 219 444 219 444 229 401 c 0,37,38
 247 328 247 328 255 328 c 0,39,40
 256 328 256 328 258 330 c 0,41,42
 260 333 260 333 277.5 400 c 128,-1,43
 295 467 295 467 302 502 c 0,44,45
 328 638 328 638 340 646 c 0,0,1
EndSplineSet
Validated: 1
EndChar

StartChar: W
Encoding: 87 87 55
AltUni2: 000077.ffffffff.0 000077.ffffffff.0
Width: 605
GlyphClass: 1
Flags: W
LayerCount: 2
Fore
SplineSet
255 197 m 0,0,1
 254 189 254 189 247 174 c 128,-1,2
 240 159 240 159 240 149 c 0,3,4
 240 140 240 140 237.5 132.5 c 128,-1,5
 235 125 235 125 230.5 116.5 c 128,-1,6
 226 108 226 108 224 102 c 0,7,8
 220 92 220 92 216.5 90 c 128,-1,9
 213 88 213 88 202 91 c 0,10,11
 196 92 196 92 169 94 c 128,-1,12
 142 96 142 96 118 99.5 c 128,-1,13
 94 103 94 103 90 107 c 0,14,15
 81 115 81 115 75 229 c 0,16,17
 67 358 67 358 64 372 c 0,18,19
 59 397 59 397 59 493 c 128,-1,20
 59 589 59 589 54 619 c 0,21,22
 51 637 51 637 51 647 c 0,23,24
 51 662 51 662 60.5 666.5 c 128,-1,25
 70 671 70 671 101 673 c 0,26,27
 145 677 145 677 149 681 c 0,28,29
 154 686 154 686 169 686 c 0,30,31
 188 686 188 686 191 679 c 128,-1,32
 194 672 194 672 198 566 c 0,33,34
 200 489 200 489 202 476 c 128,-1,35
 204 463 204 463 212 461 c 2,36,-1
 215 461 l 2,37,38
 226 461 226 461 245 492 c 0,39,40
 270 532 270 532 275 543 c 0,41,42
 286 566 286 566 305 566 c 0,43,44
 309 566 309 566 323 564 c 0,45,46
 368 558 368 558 379 523 c 0,47,48
 384 506 384 506 392 492 c 0,49,50
 400 476 400 476 400 472 c 0,51,52
 400 467 400 467 407.5 450 c 128,-1,53
 415 433 415 433 415 428 c 0,54,55
 415 421 415 421 421 415 c 128,-1,56
 427 409 427 409 433 409 c 0,57,58
 435 409 435 409 439 411 c 0,59,60
 446 414 446 414 446 452 c 2,61,-1
 446 480 l 1,62,-1
 446 502 l 2,63,64
 446 568 446 568 449 616 c 2,65,-1
 453 687 l 1,66,-1
 503 687 l 2,67,68
 537 687 537 687 545.5 685.5 c 128,-1,69
 554 684 554 684 555 678 c 0,70,71
 555 673 555 673 555.5 657.5 c 128,-1,72
 556 642 556 642 556 632 c 0,73,74
 556 458 556 458 549 411 c 0,75,76
 546 394 546 394 538.5 270 c 128,-1,77
 531 146 531 146 528 129 c 2,78,-1
 521 101 l 1,79,-1
 483 96 l 2,80,81
 454 92 454 92 418 92 c 2,82,-1
 392 91 l 1,83,-1
 389 122 l 2,84,85
 385 157 385 157 380 164 c 0,86,87
 374 176 374 176 374 202 c 128,-1,88
 374 228 374 228 367 242 c 0,89,90
 359 259 359 259 357 296 c 0,91,92
 353 337 353 337 348 344 c 0,93,94
 342 351 342 351 323 351 c 0,95,96
 301 351 301 351 294 343 c 0,97,98
 286 337 286 337 286 322 c 0,99,100
 286 302 286 302 270.5 259.5 c 128,-1,101
 255 217 255 217 255 197 c 0,0,1
EndSplineSet
Validated: 1
EndChar

StartChar: X
Encoding: 88 88 56
AltUni2: 000078.ffffffff.0 000078.ffffffff.0
Width: 518
GlyphClass: 1
Flags: W
LayerCount: 2
Fore
SplineSet
71 611 m 1,0,1
 74 620 74 620 117 620 c 0,2,3
 147 620 147 620 171 614 c 128,-1,4
 195 608 195 608 209.5 585.5 c 128,-1,5
 224 563 224 563 260 477 c 0,6,7
 265 465 265 465 270 465 c 0,8,9
 274 465 274 465 292 508 c 0,10,11
 326 593 326 593 342 611 c 0,12,13
 350 620 350 620 394 620 c 0,14,15
 461 620 461 620 461 608 c 0,16,17
 461 603 461 603 439 566 c 0,18,19
 410 518 410 518 400 491 c 0,20,21
 368 418 368 418 366 412 c 0,22,23
 348 372 348 372 348 365 c 128,-1,24
 348 358 348 358 384 295 c 0,25,26
 466 150 466 150 466 126 c 0,27,28
 466 117 466 117 459.5 115.5 c 128,-1,29
 453 114 453 114 415 114 c 0,30,31
 381 114 381 114 370 116.5 c 128,-1,32
 359 119 359 119 349 127 c 0,33,34
 333 139 333 139 319 175 c 0,35,36
 276 277 276 277 266 277 c 2,37,-1
 265 277 l 2,38,39
 260 274 260 274 228 206 c 0,40,41
 195 136 195 136 183 124 c 128,-1,42
 171 112 171 112 131 112 c 2,43,-1
 117 112 l 2,44,45
 62 112 62 112 56 116 c 0,46,47
 52 122 52 122 64 142 c 0,48,49
 65 144 65 144 97 205 c 0,50,51
 117 244 117 244 146 286 c 0,52,53
 183 344 183 344 183 377 c 0,54,55
 183 396 183 396 176 411 c 0,56,57
 167 432 167 432 133 479 c 0,58,59
 108 516 108 516 89 554 c 128,-1,60
 70 592 70 592 70 607 c 0,61,62
 70 608 70 608 70 610 c 2,63,-1
 71 611 l 1,0,1
EndSplineSet
Validated: 1
EndChar

StartChar: Y
Encoding: 89 89 57
AltUni2: 000079.ffffffff.0 000079.ffffffff.0
Width: 514
GlyphClass: 1
Flags: W
LayerCount: 2
Fore
SplineSet
58 610 m 0,0,1
 63 614 63 614 115 614 c 0,2,3
 166 614 166 614 173 607 c 0,4,5
 189 590 189 590 225 480 c 0,6,7
 253 396 253 396 260 396 c 0,8,9
 262 396 262 396 264 399 c 0,10,11
 270 407 270 407 297 491 c 0,12,13
 321 568 321 568 335 592 c 0,14,15
 349 614 349 614 399 614 c 0,16,17
 416 614 416 614 426 613 c 2,18,-1
 462 612 l 1,19,-1
 461 594 l 2,20,21
 459 573 459 573 426 509 c 0,22,23
 389 436 389 436 371 393 c 0,24,25
 364 375 364 375 353 348.5 c 128,-1,26
 342 322 342 322 338 310 c 128,-1,27
 334 298 334 298 328.5 272.5 c 128,-1,28
 323 247 323 247 320 212 c 0,29,30
 314 138 314 138 310 124 c 2,31,-1
 304 104 l 1,32,-1
 268 104 l 2,33,34
 247 104 247 104 222.5 110 c 128,-1,35
 198 116 198 116 196 121 c 2,36,-1
 192 210 l 1,37,-1
 188 297 l 1,38,-1
 165 349 l 2,39,40
 151 379 151 379 136.5 418 c 128,-1,41
 122 457 122 457 102 496 c 0,42,43
 55 587 55 587 55 603 c 0,44,45
 55 608 55 608 58 610 c 0,0,1
EndSplineSet
Validated: 1
EndChar

StartChar: Z
Encoding: 90 90 58
AltUni2: 00007a.ffffffff.0 00007a.ffffffff.0
Width: 470
GlyphClass: 1
Flags: W
LayerCount: 2
Fore
SplineSet
91 626 m 0,0,1
 94 627 94 627 129 627 c 0,2,3
 294 627 294 627 369 620 c 2,4,-1
 411 617 l 1,5,-1
 415 587 l 2,6,7
 417 573 417 573 417 568 c 0,8,9
 417 549 417 549 406.5 529 c 128,-1,10
 396 509 396 509 364 465 c 0,11,12
 330 419 330 419 268.5 326 c 128,-1,13
 207 233 207 233 207 228 c 128,-1,14
 207 223 207 223 301 223 c 0,15,16
 385 223 385 223 402.5 218 c 128,-1,17
 420 213 420 213 420 186 c 2,18,-1
 420 176 l 2,19,20
 420 140 420 140 417 130 c 2,21,-1
 414 117 l 1,22,-1
 239 117 l 2,23,24
 65 117 65 117 58 122 c 0,25,26
 53 125 53 125 53 139 c 0,27,28
 53 170 53 170 72 209 c 0,29,30
 104 279 104 279 188 390 c 0,31,32
 269 496 269 496 269 510 c 0,33,34
 269 516 269 516 224 516 c 0,35,36
 81 518 81 518 72 532 c 0,37,38
 68 537 68 537 68 576 c 0,39,40
 68 605 68 605 72 613.5 c 128,-1,41
 76 622 76 622 91 626 c 0,0,1
EndSplineSet
Validated: 1
EndChar

StartChar: asciicircum
Encoding: 94 94 59
Width: 1000
GlyphClass: 2
Flags: W
LayerCount: 2
Fore
SplineSet
343 492 m 1,0,-1
 436 630 l 1,1,-1
 487 633 l 1,2,-1
 550 555 l 1,3,-1
 604 594 l 1,4,-1
 490 735 l 1,5,-1
 436 723 l 1,6,-1
 292 537 l 1,7,-1
 343 492 l 1,0,-1
EndSplineSet
Validated: 9
EndChar

StartChar: underscore
Encoding: 95 95 60
Width: 1000
GlyphClass: 2
Flags: W
LayerCount: 2
Fore
SplineSet
252 -64 m 1,0,-1
 660 -49 l 1,1,-1
 672 -133 l 1,2,-1
 285 -160 l 1,3,-1
 252 -64 l 1,0,-1
EndSplineSet
Validated: 1
EndChar

StartChar: grave
Encoding: 96 96 61
Width: 1000
GlyphClass: 2
Flags: W
LayerCount: 2
Fore
SplineSet
256 687 m 1,0,-1
 361 582 l 1,1,-1
 430 618 l 1,2,-1
 355 750 l 1,3,-1
 256 687 l 1,0,-1
EndSplineSet
Validated: 9
EndChar

StartChar: exclamdown
Encoding: 161 161 63
Width: 416
GlyphClass: 2
Flags: W
LayerCount: 2
Fore
SplineSet
130 681 m 0,0,1
 108 702 108 702 175 759 c 0,2,3
 202 782 202 782 240 744 c 0,4,5
 284 699 284 699 215 661 c 0,6,7
 174 638 174 638 130 681 c 0,0,1
332 240 m 0,8,9
 356 240 356 240 361 231.5 c 128,-1,10
 366 223 366 223 366 192 c 0,11,12
 366 167 366 167 363.5 159.5 c 128,-1,13
 361 152 361 152 349 140 c 0,14,15
 335 126 335 126 307 121.5 c 128,-1,16
 279 117 279 117 161 113 c 0,17,18
 140 112 140 112 109 112 c 0,19,20
 72 112 72 112 63.5 121.5 c 128,-1,21
 55 131 55 131 52 168 c 0,22,23
 50 196 50 196 50 206 c 0,24,25
 50 217 50 217 51 220 c 0,26,27
 54 231 54 231 84.5 247.5 c 128,-1,28
 115 264 115 264 140 269 c 0,29,30
 161 273 161 273 165 279 c 0,31,32
 169 284 169 284 169 378 c 0,33,34
 169 448 169 448 166 455 c 0,35,36
 164 462 164 462 141 464 c 0,37,38
 119 464 119 464 86 483 c 2,39,-1
 52 503 l 1,40,-1
 53 544 l 2,41,42
 53 584 53 584 57 598.5 c 128,-1,43
 61 613 61 613 74 618 c 0,44,45
 83 621 83 621 120 621 c 0,46,47
 187 621 187 621 280 613 c 0,48,49
 316 610 316 610 326 607 c 128,-1,50
 336 604 336 604 348 592 c 0,51,52
 361 580 361 580 363.5 572.5 c 128,-1,53
 366 565 366 565 366 538 c 0,54,55
 366 501 366 501 360 497 c 0,56,57
 357 495 357 495 327 491 c 2,58,-1
 299 488 l 1,59,-1
 296 466 l 2,60,61
 294 448 294 448 294 390 c 2,62,-1
 294 348 l 2,63,64
 296 266 296 266 300 253 c 128,-1,65
 304 240 304 240 332 240 c 0,8,9
EndSplineSet
Validated: 33
EndChar

StartChar: Ccedilla
Encoding: 199 199 64
Width: 435
GlyphClass: 2
Flags: W
LayerCount: 2
Fore
SplineSet
185 81 m 28,0,1
 231 97 231 97 257 64 c 0,2,3
 281.364303178 32.326405868 281.364303178 32.326405868 255 14 c 4,4,5
 173 -43 173 -43 145 26 c 0,6,7
 129.229483698 61.9005081158 129.229483698 61.9005081158 185 81 c 28,0,1
60 615 m 128,-1,9
 63 618 63 618 179 623 c 128,-1,10
 295 628 295 628 331 628 c 2,11,-1
 335 628 l 1,12,-1
 353 627 l 1,13,-1
 353 582 l 2,14,15
 353 537 353 537 345 532 c 0,16,17
 338 527 338 527 284 527 c 2,18,-1
 230 527 l 1,19,-1
 203 497 l 2,20,21
 175 467 175 467 172 456 c 0,22,23
 171 454 171 454 171 440 c 0,24,25
 171 404 171 404 176 329 c 128,-1,26
 181 254 181 254 184 246 c 0,27,28
 187 239 187 239 214 239 c 0,29,30
 219 239 219 239 281 241 c 0,31,32
 347 243 347 243 350 243 c 0,33,34
 375 243 375 243 378 237 c 0,35,36
 381 229 381 229 385 178 c 0,37,38
 386 165 386 165 386 148 c 0,39,40
 386 125 386 125 380 121 c 0,41,42
 373 116 373 116 255 111 c 2,43,-1
 137 108 l 1,44,45
 79 166 79 166 50 196 c 1,46,-1
 53 404 l 2,47,8
 57 612 57 612 60 615 c 128,-1,9
EndSplineSet
Validated: 524321
EndChar

StartChar: Odieresis
Encoding: 214 214 65
Width: 409
GlyphClass: 2
Flags: W
LayerCount: 2
Fore
SplineSet
325 648 m 0,0,1
 303 631 303 631 259 659 c 0,2,3
 242 670 242 670 250.5 694.5 c 128,-1,4
 259 719 259 719 281 722 c 0,5,6
 312 726 312 726 321 708 c 0,7,8
 344 663 344 663 325 648 c 0,0,1
155 652 m 0,9,10
 123 626 123 626 87 650 c 0,11,12
 70 661 70 661 79.5 692 c 128,-1,13
 89 723 89 723 111 726 c 0,14,15
 158 732 158 732 167 714 c 0,16,17
 186 677 186 677 155 652 c 0,9,10
208 480 m 0,18,19
 185 486 185 486 180 489 c 0,20,21
 172 491 172 491 164 485 c 0,22,23
 156 478 156 478 151 403 c 0,24,25
 146 341 146 341 146 295 c 0,26,27
 146 255 146 255 154 252 c 0,28,29
 164 248 164 248 202 248 c 2,30,-1
 210 248 l 2,31,32
 245 248 245 248 252 260.5 c 128,-1,33
 259 273 259 273 259 341 c 2,34,-1
 259 362 l 1,35,-1
 259 459 l 1,36,-1
 245 467 l 2,37,38
 241 469 241 469 208 480 c 0,18,19
161 594 m 2,39,40
 175 595 175 595 195 595.5 c 128,-1,41
 215 596 215 596 237.5 597 c 128,-1,42
 260 598 260 598 268 598 c 2,43,-1
 314 599 l 1,44,45
 322 590 322 590 336.5 572 c 128,-1,46
 351 554 351 554 358 545 c 1,47,-1
 355 483 l 2,48,49
 352 429 352 429 346 297 c 0,50,51
 341 186 341 186 334 172 c 0,52,53
 328 163 328 163 306 159 c 0,54,55
 289 156 289 156 146 140 c 0,56,57
 116 137 116 137 97 137 c 2,58,-1
 91 137 l 1,59,60
 83 141 83 141 68 164 c 2,61,-1
 50 189 l 1,62,63
 50 244 50 244 52 354 c 128,-1,64
 54 464 54 464 54 519 c 1,65,-1
 102 591 l 1,66,-1
 161 594 l 2,39,40
EndSplineSet
Validated: 33
EndChar

StartChar: Udieresis
Encoding: 220 220 66
Width: 513
GlyphClass: 2
Flags: W
LayerCount: 2
Fore
SplineSet
321.5 591.5 m 128,-1,1
 315 635 315 635 328 660 c 0,2,3
 351 708 351 708 424 672 c 0,4,5
 489 640 489 640 417 599 c 0,6,0
 328 548 328 548 321.5 591.5 c 128,-1,1
61 578 m 0,7,8
 21 617 21 617 71 651 c 0,9,10
 123 687 123 687 152 659 c 0,11,12
 196 616 196 616 155 586 c 0,13,14
 96 544 96 544 61 578 c 0,7,8
343 537 m 0,15,16
 347 543 347 543 383 543 c 2,17,-1
 418 543 l 1,18,19
 426 532 426 532 441 512 c 128,-1,20
 456 492 456 492 464 481 c 1,21,-1
 468 422 l 2,22,23
 470 376 470 376 470 302 c 2,24,-1
 470 249 l 1,25,-1
 468 133 l 1,26,-1
 447 114 l 2,27,28
 442 110 442 110 432 101 c 128,-1,29
 422 92 422 92 406.5 78.5 c 128,-1,30
 391 65 391 65 383 58 c 2,31,-1
 338 20 l 1,32,33
 310 19 310 19 253.5 19 c 128,-1,34
 197 19 197 19 169 18 c 1,35,-1
 116 62 l 2,36,37
 82 89 82 89 71 101 c 128,-1,38
 60 113 60 113 58 124 c 0,39,40
 57 128 57 128 57 186 c 0,41,42
 57 274 57 274 59.5 396.5 c 128,-1,43
 62 519 62 519 64 521 c 128,-1,44
 66 523 66 523 103.5 527.5 c 128,-1,45
 141 532 141 532 157 532 c 2,46,-1
 163 531 l 2,47,48
 164 530 164 530 173.5 362.5 c 128,-1,49
 183 195 183 195 183 192 c 0,50,51
 186 180 186 180 222 162 c 128,-1,52
 258 144 258 144 266 144 c 128,-1,53
 274 144 274 144 302 157.5 c 128,-1,54
 330 171 330 171 335 177 c 0,55,56
 340 182 340 182 340 305 c 2,57,-1
 340 449 l 2,58,59
 340 529 340 529 343 537 c 0,15,16
EndSplineSet
Validated: 33
EndChar

StartChar: ccedilla
Encoding: 231 231 67
Width: 435
GlyphClass: 2
Flags: W
LayerCount: 2
Fore
SplineSet
185 81 m 28,0,1
 231 97 231 97 257 64 c 0,2,3
 281.364303178 32.326405868 281.364303178 32.326405868 255 14 c 4,4,5
 173 -43 173 -43 145 26 c 0,6,7
 129.229483698 61.9005081158 129.229483698 61.9005081158 185 81 c 28,0,1
60 615 m 128,-1,9
 63 618 63 618 179 623 c 128,-1,10
 295 628 295 628 331 628 c 2,11,-1
 335 628 l 1,12,-1
 353 627 l 1,13,-1
 353 582 l 2,14,15
 353 537 353 537 345 532 c 0,16,17
 338 527 338 527 284 527 c 2,18,-1
 230 527 l 1,19,-1
 203 497 l 2,20,21
 175 467 175 467 172 456 c 0,22,23
 171 454 171 454 171 440 c 0,24,25
 171 404 171 404 176 329 c 128,-1,26
 181 254 181 254 184 246 c 0,27,28
 187 239 187 239 214 239 c 0,29,30
 219 239 219 239 281 241 c 0,31,32
 347 243 347 243 350 243 c 0,33,34
 375 243 375 243 378 237 c 0,35,36
 381 229 381 229 385 178 c 0,37,38
 386 165 386 165 386 148 c 0,39,40
 386 125 386 125 380 121 c 0,41,42
 373 116 373 116 255 111 c 2,43,-1
 137 108 l 1,44,45
 79 166 79 166 50 196 c 1,46,-1
 53 404 l 2,47,8
 57 612 57 612 60 615 c 128,-1,9
EndSplineSet
Validated: 524321
EndChar

StartChar: odieresis
Encoding: 246 246 68
Width: 409
GlyphClass: 2
Flags: W
LayerCount: 2
Fore
SplineSet
325 648 m 0,0,1
 303 631 303 631 259 659 c 0,2,3
 242 670 242 670 250.5 694.5 c 128,-1,4
 259 719 259 719 281 722 c 0,5,6
 312 726 312 726 321 708 c 0,7,8
 344 663 344 663 325 648 c 0,0,1
155 652 m 0,9,10
 123 626 123 626 87 650 c 0,11,12
 70 661 70 661 79.5 692 c 128,-1,13
 89 723 89 723 111 726 c 0,14,15
 158 732 158 732 167 714 c 0,16,17
 186 677 186 677 155 652 c 0,9,10
208 480 m 0,18,19
 185 486 185 486 180 489 c 0,20,21
 172 491 172 491 164 485 c 0,22,23
 156 478 156 478 151 403 c 0,24,25
 146 341 146 341 146 295 c 0,26,27
 146 255 146 255 154 252 c 0,28,29
 164 248 164 248 202 248 c 2,30,-1
 210 248 l 2,31,32
 245 248 245 248 252 260.5 c 128,-1,33
 259 273 259 273 259 341 c 2,34,-1
 259 362 l 1,35,-1
 259 459 l 1,36,-1
 245 467 l 2,37,38
 241 469 241 469 208 480 c 0,18,19
161 594 m 2,39,40
 175 595 175 595 195 595.5 c 128,-1,41
 215 596 215 596 237.5 597 c 128,-1,42
 260 598 260 598 268 598 c 2,43,-1
 314 599 l 1,44,45
 322 590 322 590 336.5 572 c 128,-1,46
 351 554 351 554 358 545 c 1,47,-1
 355 483 l 2,48,49
 352 429 352 429 346 297 c 0,50,51
 341 186 341 186 334 172 c 0,52,53
 328 163 328 163 306 159 c 0,54,55
 289 156 289 156 146 140 c 0,56,57
 116 137 116 137 97 137 c 2,58,-1
 91 137 l 1,59,60
 83 141 83 141 68 164 c 2,61,-1
 50 189 l 1,62,63
 50 244 50 244 52 354 c 128,-1,64
 54 464 54 464 54 519 c 1,65,-1
 102 591 l 1,66,-1
 161 594 l 2,39,40
EndSplineSet
Validated: 33
EndChar

StartChar: udieresis
Encoding: 252 252 69
Width: 513
GlyphClass: 2
Flags: W
LayerCount: 2
Fore
SplineSet
321.5 591.5 m 128,-1,1
 315 635 315 635 328 660 c 0,2,3
 351 708 351 708 424 672 c 0,4,5
 489 640 489 640 417 599 c 0,6,0
 328 548 328 548 321.5 591.5 c 128,-1,1
61 578 m 0,7,8
 21 617 21 617 71 651 c 0,9,10
 123 687 123 687 152 659 c 0,11,12
 196 616 196 616 155 586 c 0,13,14
 96 544 96 544 61 578 c 0,7,8
343 537 m 0,15,16
 347 543 347 543 383 543 c 2,17,-1
 418 543 l 1,18,19
 426 532 426 532 441 512 c 128,-1,20
 456 492 456 492 464 481 c 1,21,-1
 468 422 l 2,22,23
 470 376 470 376 470 302 c 2,24,-1
 470 249 l 1,25,-1
 468 133 l 1,26,-1
 447 114 l 2,27,28
 442 110 442 110 432 101 c 128,-1,29
 422 92 422 92 406.5 78.5 c 128,-1,30
 391 65 391 65 383 58 c 2,31,-1
 338 20 l 1,32,33
 310 19 310 19 253.5 19 c 128,-1,34
 197 19 197 19 169 18 c 1,35,-1
 116 62 l 2,36,37
 82 89 82 89 71 101 c 128,-1,38
 60 113 60 113 58 124 c 0,39,40
 57 128 57 128 57 186 c 0,41,42
 57 274 57 274 59.5 396.5 c 128,-1,43
 62 519 62 519 64 521 c 128,-1,44
 66 523 66 523 103.5 527.5 c 128,-1,45
 141 532 141 532 157 532 c 2,46,-1
 163 531 l 2,47,48
 164 530 164 530 173.5 362.5 c 128,-1,49
 183 195 183 195 183 192 c 0,50,51
 186 180 186 180 222 162 c 128,-1,52
 258 144 258 144 266 144 c 128,-1,53
 274 144 274 144 302 157.5 c 128,-1,54
 330 171 330 171 335 177 c 0,55,56
 340 182 340 182 340 305 c 2,57,-1
 340 449 l 2,58,59
 340 529 340 529 343 537 c 0,15,16
EndSplineSet
Validated: 33
EndChar

StartChar: Gbreve
Encoding: 286 286 70
Width: 527
GlyphClass: 2
Flags: W
LayerCount: 2
Fore
SplineSet
49.8271484375 716.6328125 m 0,0,1
 47 658 47 658 214 658 c 0,2,3
 442 658 442 658 384 732 c 0,4,5
 363.8984375 757.985351562 363.8984375 757.985351562 306.94921875 735.993164062 c 128,-1,6
 250 714 250 714 198 736 c 0,7,8
 52.6552734375 783.981445312 52.6552734375 783.981445312 49.8271484375 716.6328125 c 0,0,1
138 621 m 0,9,10
 155 636 155 636 161 632 c 0,11,12
 168 629 168 629 268 625 c 2,13,-1
 369 622 l 1,14,-1
 369 519 l 1,15,-1
 338 497 l 2,16,17
 315 481 315 481 303.5 478 c 128,-1,18
 292 475 292 475 250 472 c 0,19,20
 192 468 192 468 189 465 c 0,21,22
 188 464 188 464 188 453 c 0,23,24
 188 421 188 421 201 285 c 0,25,26
 206 238 206 238 206 203 c 0,27,28
 206 171 206 171 211 166 c 0,29,30
 213 164 213 164 230 164 c 0,31,32
 255 164 255 164 289.5 167.5 c 128,-1,33
 324 171 324 171 328 175 c 0,34,35
 333 180 333 180 333 235 c 2,36,-1
 333 291 l 1,37,-1
 292 293 l 1,38,-1
 250 296 l 1,39,-1
 250 324 l 2,40,41
 250 349 250 349 260 383 c 2,42,-1
 269 412 l 1,43,-1
 322 412 l 2,44,45
 380 412 380 412 402 409 c 0,46,47
 421 407 421 407 429 402 c 128,-1,48
 437 397 437 397 451 379 c 2,49,-1
 472 353 l 1,50,-1
 468 314 l 2,51,52
 465 281 465 281 461 164 c 0,53,54
 457 52 457 52 454 47 c 128,-1,55
 451 42 451 42 330 42 c 0,56,57
 288 42 288 42 188 44 c 2,58,-1
 147 45 l 1,59,-1
 107 82 l 2,60,61
 81 107 81 107 74 117.5 c 128,-1,62
 67 128 67 128 64 146 c 0,63,64
 59 180 59 180 56 348 c 0,65,66
 50 529 50 529 48 539 c 0,67,68
 47 542 47 542 47 547 c 0,69,70
 47 554 47 554 54 560 c 128,-1,71
 61 566 61 566 83 581 c 0,72,73
 123 608 123 608 138 621 c 0,9,10
EndSplineSet
Validated: 524329
EndChar

StartChar: gbreve
Encoding: 287 287 71
Width: 527
GlyphClass: 2
Flags: W
LayerCount: 2
Fore
SplineSet
49.8271484375 716.6328125 m 0,0,1
 47 658 47 658 214 658 c 0,2,3
 442 658 442 658 384 732 c 0,4,5
 363.8984375 757.985351562 363.8984375 757.985351562 306.94921875 735.993164062 c 128,-1,6
 250 714 250 714 198 736 c 0,7,8
 52.6552734375 783.981445312 52.6552734375 783.981445312 49.8271484375 716.6328125 c 0,0,1
138 621 m 0,9,10
 155 636 155 636 161 632 c 0,11,12
 168 629 168 629 268 625 c 2,13,-1
 369 622 l 1,14,-1
 369 519 l 1,15,-1
 338 497 l 2,16,17
 315 481 315 481 303.5 478 c 128,-1,18
 292 475 292 475 250 472 c 0,19,20
 192 468 192 468 189 465 c 0,21,22
 188 464 188 464 188 453 c 0,23,24
 188 421 188 421 201 285 c 0,25,26
 206 238 206 238 206 203 c 0,27,28
 206 171 206 171 211 166 c 0,29,30
 213 164 213 164 230 164 c 0,31,32
 255 164 255 164 289.5 167.5 c 128,-1,33
 324 171 324 171 328 175 c 0,34,35
 333 180 333 180 333 235 c 2,36,-1
 333 291 l 1,37,-1
 292 293 l 1,38,-1
 250 296 l 1,39,-1
 250 324 l 2,40,41
 250 349 250 349 260 383 c 2,42,-1
 269 412 l 1,43,-1
 322 412 l 2,44,45
 380 412 380 412 402 409 c 0,46,47
 421 407 421 407 429 402 c 128,-1,48
 437 397 437 397 451 379 c 2,49,-1
 472 353 l 1,50,-1
 468 314 l 2,51,52
 465 281 465 281 461 164 c 0,53,54
 457 52 457 52 454 47 c 128,-1,55
 451 42 451 42 330 42 c 0,56,57
 288 42 288 42 188 44 c 2,58,-1
 147 45 l 1,59,-1
 107 82 l 2,60,61
 81 107 81 107 74 117.5 c 128,-1,62
 67 128 67 128 64 146 c 0,63,64
 59 180 59 180 56 348 c 0,65,66
 50 529 50 529 48 539 c 0,67,68
 47 542 47 542 47 547 c 0,69,70
 47 554 47 554 54 560 c 128,-1,71
 61 566 61 566 83 581 c 0,72,73
 123 608 123 608 138 621 c 0,9,10
EndSplineSet
Validated: 524329
EndChar

StartChar: Idotaccent
Encoding: 304 304 72
Width: 416
GlyphClass: 2
Flags: W
LayerCount: 2
Fore
SplineSet
130 681 m 0,0,1
 108 702 108 702 175 759 c 0,2,3
 202 782 202 782 240 744 c 0,4,5
 284 699 284 699 215 661 c 0,6,7
 174 638 174 638 130 681 c 0,0,1
332 240 m 0,8,9
 356 240 356 240 361 231.5 c 128,-1,10
 366 223 366 223 366 192 c 0,11,12
 366 167 366 167 363.5 159.5 c 128,-1,13
 361 152 361 152 349 140 c 0,14,15
 335 126 335 126 307 121.5 c 128,-1,16
 279 117 279 117 161 113 c 0,17,18
 140 112 140 112 109 112 c 0,19,20
 72 112 72 112 63.5 121.5 c 128,-1,21
 55 131 55 131 52 168 c 0,22,23
 50 196 50 196 50 206 c 0,24,25
 50 217 50 217 51 220 c 0,26,27
 54 231 54 231 84.5 247.5 c 128,-1,28
 115 264 115 264 140 269 c 0,29,30
 161 273 161 273 165 279 c 0,31,32
 169 284 169 284 169 378 c 0,33,34
 169 448 169 448 166 455 c 0,35,36
 164 462 164 462 141 464 c 0,37,38
 119 464 119 464 86 483 c 2,39,-1
 52 503 l 1,40,-1
 53 544 l 2,41,42
 53 584 53 584 57 598.5 c 128,-1,43
 61 613 61 613 74 618 c 0,44,45
 83 621 83 621 120 621 c 0,46,47
 187 621 187 621 280 613 c 0,48,49
 316 610 316 610 326 607 c 128,-1,50
 336 604 336 604 348 592 c 0,51,52
 361 580 361 580 363.5 572.5 c 128,-1,53
 366 565 366 565 366 538 c 0,54,55
 366 501 366 501 360 497 c 0,56,57
 357 495 357 495 327 491 c 2,58,-1
 299 488 l 1,59,-1
 296 466 l 2,60,61
 294 448 294 448 294 390 c 2,62,-1
 294 348 l 2,63,64
 296 266 296 266 300 253 c 128,-1,65
 304 240 304 240 332 240 c 0,8,9
EndSplineSet
Validated: 33
EndChar

StartChar: dotlessi
Encoding: 305 305 73
Width: 416
GlyphClass: 2
Flags: W
LayerCount: 2
Fore
SplineSet
130 681 m 0,0,1
 108 702 108 702 175 759 c 0,2,3
 202 782 202 782 240 744 c 0,4,5
 284 699 284 699 215 661 c 0,6,7
 174 638 174 638 130 681 c 0,0,1
332 240 m 0,8,9
 356 240 356 240 361 231.5 c 128,-1,10
 366 223 366 223 366 192 c 0,11,12
 366 167 366 167 363.5 159.5 c 128,-1,13
 361 152 361 152 349 140 c 0,14,15
 335 126 335 126 307 121.5 c 128,-1,16
 279 117 279 117 161 113 c 0,17,18
 140 112 140 112 109 112 c 0,19,20
 72 112 72 112 63.5 121.5 c 128,-1,21
 55 131 55 131 52 168 c 0,22,23
 50 196 50 196 50 206 c 0,24,25
 50 217 50 217 51 220 c 0,26,27
 54 231 54 231 84.5 247.5 c 128,-1,28
 115 264 115 264 140 269 c 0,29,30
 161 273 161 273 165 279 c 0,31,32
 169 284 169 284 169 378 c 0,33,34
 169 448 169 448 166 455 c 0,35,36
 164 462 164 462 141 464 c 0,37,38
 119 464 119 464 86 483 c 2,39,-1
 52 503 l 1,40,-1
 53 544 l 2,41,42
 53 584 53 584 57 598.5 c 128,-1,43
 61 613 61 613 74 618 c 0,44,45
 83 621 83 621 120 621 c 0,46,47
 187 621 187 621 280 613 c 0,48,49
 316 610 316 610 326 607 c 128,-1,50
 336 604 336 604 348 592 c 0,51,52
 361 580 361 580 363.5 572.5 c 128,-1,53
 366 565 366 565 366 538 c 0,54,55
 366 501 366 501 360 497 c 0,56,57
 357 495 357 495 327 491 c 2,58,-1
 299 488 l 1,59,-1
 296 466 l 2,60,61
 294 448 294 448 294 390 c 2,62,-1
 294 348 l 2,63,64
 296 266 296 266 300 253 c 128,-1,65
 304 240 304 240 332 240 c 0,8,9
EndSplineSet
Validated: 33
EndChar

StartChar: Scedilla
Encoding: 350 350 74
Width: 483
GlyphClass: 2
Flags: W
LayerCount: 2
Fore
SplineSet
40 72.5 m 128,-1,1
 34 124 34 124 59 147 c 0,2,3
 133 212 133 212 160 130 c 0,4,5
 178 76 178 76 141 60 c 0,6,0
 46 21 46 21 40 72.5 c 128,-1,1
225 601 m 0,7,8
 331 617 331 617 348 617 c 2,9,-1
 351 617 l 1,10,-1
 374 616 l 1,11,-1
 386 577 l 2,12,13
 394 551 394 551 394 539 c 0,14,15
 394 535 394 535 393 534 c 128,-1,16
 392 533 392 533 353 525 c 128,-1,17
 314 517 314 517 275 508 c 128,-1,18
 236 499 236 499 236 497 c 0,19,20
 236 493 236 493 323 445 c 0,21,22
 410 398 410 398 414 384 c 0,23,24
 416 375 416 375 423 267.5 c 128,-1,25
 430 160 430 160 431 106 c 2,26,-1
 432 67 l 1,27,-1
 375 69 l 2,28,29
 314 71 314 71 306 75 c 0,30,31
 293 80 293 80 174.5 188.5 c 128,-1,32
 56 297 56 297 56 304 c 0,33,34
 56 312 56 312 82 338 c 128,-1,35
 108 364 108 364 116 364 c 0,36,37
 127 364 127 364 214 313 c 0,38,39
 296 266 296 266 306 266 c 0,40,41
 311 266 311 266 306 289 c 0,42,43
 304 304 304 304 288.5 318.5 c 128,-1,44
 273 333 273 333 203 384 c 0,45,46
 143 430 143 430 123 446.5 c 128,-1,47
 103 463 103 463 103 470 c 0,48,49
 103 486 103 486 109 528.5 c 128,-1,50
 115 571 115 571 118 577 c 0,51,52
 123 585 123 585 225 601 c 0,7,8
EndSplineSet
Validated: 33
EndChar

StartChar: scedilla
Encoding: 351 351 75
Width: 483
GlyphClass: 2
Flags: W
LayerCount: 2
Fore
SplineSet
40 72.5 m 128,-1,1
 34 124 34 124 59 147 c 0,2,3
 133 212 133 212 160 130 c 0,4,5
 178 76 178 76 141 60 c 0,6,0
 46 21 46 21 40 72.5 c 128,-1,1
225 601 m 0,7,8
 331 617 331 617 348 617 c 2,9,-1
 351 617 l 1,10,-1
 374 616 l 1,11,-1
 386 577 l 2,12,13
 394 551 394 551 394 539 c 0,14,15
 394 535 394 535 393 534 c 128,-1,16
 392 533 392 533 353 525 c 128,-1,17
 314 517 314 517 275 508 c 128,-1,18
 236 499 236 499 236 497 c 0,19,20
 236 493 236 493 323 445 c 0,21,22
 410 398 410 398 414 384 c 0,23,24
 416 375 416 375 423 267.5 c 128,-1,25
 430 160 430 160 431 106 c 2,26,-1
 432 67 l 1,27,-1
 375 69 l 2,28,29
 314 71 314 71 306 75 c 0,30,31
 293 80 293 80 174.5 188.5 c 128,-1,32
 56 297 56 297 56 304 c 0,33,34
 56 312 56 312 82 338 c 128,-1,35
 108 364 108 364 116 364 c 0,36,37
 127 364 127 364 214 313 c 0,38,39
 296 266 296 266 306 266 c 0,40,41
 311 266 311 266 306 289 c 0,42,43
 304 304 304 304 288.5 318.5 c 128,-1,44
 273 333 273 333 203 384 c 0,45,46
 143 430 143 430 123 446.5 c 128,-1,47
 103 463 103 463 103 470 c 0,48,49
 103 486 103 486 109 528.5 c 128,-1,50
 115 571 115 571 118 577 c 0,51,52
 123 585 123 585 225 601 c 0,7,8
EndSplineSet
Validated: 33
EndChar

StartChar: Gcaron
Encoding: 486 486 76
Width: 527
GlyphClass: 2
Flags: W
LayerCount: 2
Fore
SplineSet
87 685 m 1,0,1
 121 641 121 641 228 634 c 0,2,3
 294 630 294 630 349 668 c 0,4,5
 387 694 387 694 332 706 c 1,6,-1
 258 688 l 1,7,8
 160 690 160 690 144 713 c 1,9,-1
 87 685 l 1,0,1
163 608 m 0,10,11
 180 623 180 623 186 619 c 0,12,13
 193 616 193 616 293 612 c 2,14,-1
 394 609 l 1,15,-1
 394 506 l 1,16,-1
 363 484 l 2,17,18
 340 468 340 468 328.5 465 c 128,-1,19
 317 462 317 462 275 459 c 0,20,21
 217 455 217 455 214 452 c 0,22,23
 213 451 213 451 213 440 c 0,24,25
 213 408 213 408 226 272 c 0,26,27
 231 225 231 225 231 190 c 0,28,29
 231 158 231 158 236 153 c 0,30,31
 238 151 238 151 255 151 c 0,32,33
 280 151 280 151 314.5 154.5 c 128,-1,34
 349 158 349 158 353 162 c 0,35,36
 358 167 358 167 358 222 c 2,37,-1
 358 278 l 1,38,-1
 317 280 l 1,39,-1
 275 283 l 1,40,-1
 275 311 l 2,41,42
 275 336 275 336 285 370 c 2,43,-1
 294 399 l 1,44,-1
 347 399 l 2,45,46
 405 399 405 399 427 396 c 0,47,48
 446 394 446 394 454 389 c 128,-1,49
 462 384 462 384 476 366 c 2,50,-1
 497 340 l 1,51,-1
 493 301 l 2,52,53
 490 268 490 268 486 151 c 0,54,55
 482 39 482 39 479 34 c 128,-1,56
 476 29 476 29 355 29 c 0,57,58
 313 29 313 29 213 31 c 2,59,-1
 172 32 l 1,60,-1
 132 69 l 2,61,62
 106 94 106 94 99 104.5 c 128,-1,63
 92 115 92 115 89 133 c 0,64,65
 84 167 84 167 81 335 c 0,66,67
 75 516 75 516 73 526 c 0,68,69
 72 529 72 529 72 534 c 0,70,71
 72 541 72 541 79 547 c 128,-1,72
 86 553 86 553 108 568 c 0,73,74
 148 595 148 595 163 608 c 0,10,11
EndSplineSet
Validated: 41
EndChar

StartChar: uni0218
Encoding: 536 536 77
Width: 483
GlyphClass: 2
Flags: W
LayerCount: 2
Fore
SplineSet
40 72.5 m 128,-1,1
 34 124 34 124 59 147 c 0,2,3
 133 212 133 212 160 130 c 0,4,5
 178 76 178 76 141 60 c 0,6,0
 46 21 46 21 40 72.5 c 128,-1,1
225 601 m 0,7,8
 331 617 331 617 348 617 c 2,9,-1
 351 617 l 1,10,-1
 374 616 l 1,11,-1
 386 577 l 2,12,13
 394 551 394 551 394 539 c 0,14,15
 394 535 394 535 393 534 c 128,-1,16
 392 533 392 533 353 525 c 128,-1,17
 314 517 314 517 275 508 c 128,-1,18
 236 499 236 499 236 497 c 0,19,20
 236 493 236 493 323 445 c 0,21,22
 410 398 410 398 414 384 c 0,23,24
 416 375 416 375 423 267.5 c 128,-1,25
 430 160 430 160 431 106 c 2,26,-1
 432 67 l 1,27,-1
 375 69 l 2,28,29
 314 71 314 71 306 75 c 0,30,31
 293 80 293 80 174.5 188.5 c 128,-1,32
 56 297 56 297 56 304 c 0,33,34
 56 312 56 312 82 338 c 128,-1,35
 108 364 108 364 116 364 c 0,36,37
 127 364 127 364 214 313 c 0,38,39
 296 266 296 266 306 266 c 0,40,41
 311 266 311 266 306 289 c 0,42,43
 304 304 304 304 288.5 318.5 c 128,-1,44
 273 333 273 333 203 384 c 0,45,46
 143 430 143 430 123 446.5 c 128,-1,47
 103 463 103 463 103 470 c 0,48,49
 103 486 103 486 109 528.5 c 128,-1,50
 115 571 115 571 118 577 c 0,51,52
 123 585 123 585 225 601 c 0,7,8
EndSplineSet
Validated: 33
EndChar

StartChar: uni0219
Encoding: 537 537 78
Width: 483
GlyphClass: 2
Flags: W
LayerCount: 2
Fore
SplineSet
40 72.5 m 128,-1,1
 34 124 34 124 59 147 c 0,2,3
 133 212 133 212 160 130 c 0,4,5
 178 76 178 76 141 60 c 0,6,0
 46 21 46 21 40 72.5 c 128,-1,1
225 601 m 0,7,8
 331 617 331 617 348 617 c 2,9,-1
 351 617 l 1,10,-1
 374 616 l 1,11,-1
 386 577 l 2,12,13
 394 551 394 551 394 539 c 0,14,15
 394 535 394 535 393 534 c 128,-1,16
 392 533 392 533 353 525 c 128,-1,17
 314 517 314 517 275 508 c 128,-1,18
 236 499 236 499 236 497 c 0,19,20
 236 493 236 493 323 445 c 0,21,22
 410 398 410 398 414 384 c 0,23,24
 416 375 416 375 423 267.5 c 128,-1,25
 430 160 430 160 431 106 c 2,26,-1
 432 67 l 1,27,-1
 375 69 l 2,28,29
 314 71 314 71 306 75 c 0,30,31
 293 80 293 80 174.5 188.5 c 128,-1,32
 56 297 56 297 56 304 c 0,33,34
 56 312 56 312 82 338 c 128,-1,35
 108 364 108 364 116 364 c 0,36,37
 127 364 127 364 214 313 c 0,38,39
 296 266 296 266 306 266 c 0,40,41
 311 266 311 266 306 289 c 0,42,43
 304 304 304 304 288.5 318.5 c 128,-1,44
 273 333 273 333 203 384 c 0,45,46
 143 430 143 430 123 446.5 c 128,-1,47
 103 463 103 463 103 470 c 0,48,49
 103 486 103 486 109 528.5 c 128,-1,50
 115 571 115 571 118 577 c 0,51,52
 123 585 123 585 225 601 c 0,7,8
EndSplineSet
Validated: 33
EndChar

StartChar: uni023F
Encoding: 575 575 79
Width: 483
GlyphClass: 2
Flags: W
LayerCount: 2
Fore
SplineSet
40 72.5 m 128,-1,1
 34 124 34 124 59 147 c 0,2,3
 133 212 133 212 160 130 c 0,4,5
 178 76 178 76 141 60 c 0,6,0
 46 21 46 21 40 72.5 c 128,-1,1
225 601 m 0,7,8
 331 617 331 617 348 617 c 2,9,-1
 351 617 l 1,10,-1
 374 616 l 1,11,-1
 386 577 l 2,12,13
 394 551 394 551 394 539 c 0,14,15
 394 535 394 535 393 534 c 128,-1,16
 392 533 392 533 353 525 c 128,-1,17
 314 517 314 517 275 508 c 128,-1,18
 236 499 236 499 236 497 c 0,19,20
 236 493 236 493 323 445 c 0,21,22
 410 398 410 398 414 384 c 0,23,24
 416 375 416 375 423 267.5 c 128,-1,25
 430 160 430 160 431 106 c 2,26,-1
 432 67 l 1,27,-1
 375 69 l 2,28,29
 314 71 314 71 306 75 c 0,30,31
 293 80 293 80 174.5 188.5 c 128,-1,32
 56 297 56 297 56 304 c 0,33,34
 56 312 56 312 82 338 c 128,-1,35
 108 364 108 364 116 364 c 0,36,37
 127 364 127 364 214 313 c 0,38,39
 296 266 296 266 306 266 c 0,40,41
 311 266 311 266 306 289 c 0,42,43
 304 304 304 304 288.5 318.5 c 128,-1,44
 273 333 273 333 203 384 c 0,45,46
 143 430 143 430 123 446.5 c 128,-1,47
 103 463 103 463 103 470 c 0,48,49
 103 486 103 486 109 528.5 c 128,-1,50
 115 571 115 571 118 577 c 0,51,52
 123 585 123 585 225 601 c 0,7,8
EndSplineSet
Validated: 33
EndChar
